<svg width="165" height="60" viewBox="0 0 165 60" fill="none" xmlns="http://www.w3.org/2000/svg">
<path d="M17.4121 25.4574C16.5863 26.1427 15.6228 26.4169 14.9346 26.4169C13.5583 26.554 12.0443 26.1427 11.2185 25.0461C10.5303 24.2237 10.1174 22.99 9.29157 22.0304C8.05285 20.5226 6.26358 19.5631 4.33668 19.9743C0.482881 20.6597 -1.16875 25.0461 0.895788 28.0618C3.92377 32.3112 10.9432 31.6258 14.3841 28.6101C15.4852 27.6506 16.5863 26.691 17.4121 25.4574Z" fill="#3B2774"/>
<path d="M146.759 25.4574C147.585 26.1427 148.548 26.4169 149.236 26.4169C150.613 26.554 152.127 26.1427 152.952 25.0461C153.641 24.0866 154.053 22.99 154.879 22.0304C155.98 20.5226 157.907 19.5631 159.834 19.9743C163.688 20.6597 165.34 25.0461 163.275 28.0618C160.247 32.3112 153.228 31.6258 149.787 28.6101C148.686 27.6506 147.585 26.691 146.759 25.4574Z" fill="#3B2774"/>
<path d="M133.733 2.48486C133.602 2.48486 124.961 2.48486 124.961 2.48486C124.045 2.48486 123.259 3.38455 123.128 4.28424C123.128 5.18392 123.914 6.08361 124.961 6.21214C125.092 6.21214 133.733 6.21214 133.733 6.21214C134.649 6.21214 135.435 5.31245 135.566 4.41276C135.566 3.51308 134.78 2.61339 133.733 2.48486Z" fill="#3B2774"/>
<path d="M75.6015 21.6222C75.4643 21.0611 75.4643 20.6403 75.3271 20.0792C75.3271 19.3779 75.3271 18.2557 75.3271 17.2737C75.4643 13.9072 76.013 8.01568 71.4862 8.01568C68.4684 8.01568 66.5479 10.6809 66.1364 11.5225C65.9992 9.13787 64.2159 7.45459 61.3353 7.45459C59.552 7.45459 58.4546 8.85733 58.4546 8.85733C58.4546 8.85733 60.2379 9.41842 60.2379 11.8031C60.2379 13.4864 60.2379 21.7625 60.2379 21.9028C60.2379 23.4458 61.3353 24.7083 63.1185 24.7083C64.9018 24.7083 66.1364 23.3055 66.1364 21.9028V14.4683C66.4107 13.2058 67.0966 12.0836 68.0568 12.0836C69.4286 12.0836 69.4286 13.6266 69.4286 13.6266V20.7806C69.4286 21.0611 69.4286 21.2014 69.5658 21.482C69.5658 21.9028 69.7029 22.1833 69.8401 22.4639C70.526 23.8666 72.0349 24.8485 74.2297 24.8485C76.013 24.8485 77.1104 23.4458 77.1104 23.4458C77.1104 23.4458 76.1502 22.8847 75.6015 21.6222Z" fill="#3B2774"/>
<path d="M120.236 21.8282C120.086 21.2791 120.086 20.8672 119.936 20.3181V3.02026C119.936 1.37284 118.437 0 116.638 0C114.84 0 113.191 1.37284 113.191 3.02026V18.2588C113.191 19.6317 113.041 21.0045 113.791 22.3774C114.54 23.7502 116.489 24.8485 118.737 24.8485C120.686 24.8485 121.885 23.4756 121.885 23.4756C121.885 23.4756 120.836 23.0638 120.236 21.8282Z" fill="#3B2774"/>
<path d="M50.3708 21.2248C48.7805 21.2248 47.9853 19.3404 47.9853 16.1516C47.9853 13.1076 48.913 11.2233 50.2383 11.0783C51.5635 11.0783 52.4912 12.9627 52.4912 16.1516C52.6238 19.1955 51.9611 21.0798 50.3708 21.2248ZM50.3708 7.45459C45.8649 7.45459 42.2866 11.3682 42.2866 16.1516C42.2866 20.9349 45.8649 24.8485 50.3708 24.8485C54.8767 24.8485 58.455 20.9349 58.455 16.1516C58.455 11.3682 54.7442 7.45459 50.3708 7.45459Z" fill="#3B2774"/>
<path d="M85.2964 20.8237C83.6647 20.8237 82.8488 19.1797 82.8488 16.7138C82.8488 14.2478 83.8007 12.6038 85.1604 12.6038C86.5202 12.6038 87.472 14.2478 87.472 16.7138C87.608 19.1797 86.7922 20.8237 85.2964 20.8237ZM94.4069 21.7827C94.2709 21.2347 94.2709 20.8237 94.1349 20.2757V3.01396C94.1349 1.36998 92.7751 0 91.0074 0C89.2397 0 87.88 1.36998 87.88 3.01396V11.2338C87.2001 10.2749 85.5684 8.49388 82.9848 8.49388C75.914 8.49388 75.5061 20.9607 80.2653 23.9747C81.625 24.7967 83.6647 25.0707 85.2964 24.6597C86.3842 24.3857 88.016 23.2897 88.2879 22.0567C88.2879 22.1937 88.4239 22.1937 88.4239 22.3307C89.1038 23.7007 90.8715 24.7967 92.9111 24.7967C94.6788 24.7967 95.7666 23.4267 95.7666 23.4267C95.7666 23.4267 94.8148 23.0157 94.4069 21.7827Z" fill="#3B2774"/>
<path d="M102.34 15.1369C102.474 13.8324 102.874 12.093 103.94 11.2233C105.006 10.6435 106.338 11.3682 106.338 12.6728C106.338 13.9773 105.539 14.992 104.339 15.2819C104.339 15.1369 102.34 15.2819 102.34 15.1369ZM111.135 19.4854C111.135 19.4854 110.203 20.7899 106.871 20.7899C103.407 20.7899 102.74 17.891 102.74 17.891C107.671 17.891 111.935 17.6011 111.935 13.2526C111.935 8.90409 107.404 7.45459 104.739 7.45459C100.342 7.45459 97.0103 11.2233 97.0103 16.2965C97.0103 21.9495 101.274 24.8485 104.739 24.8485C110.869 24.8485 111.135 19.4854 111.135 19.4854Z" fill="#3B2774"/>
<path d="M127.348 15.1369C127.482 13.8324 127.881 12.093 128.947 11.2233C129.88 10.6435 131.213 11.3682 131.213 12.6728C131.213 13.9773 130.413 14.992 129.214 15.2819C129.214 15.1369 127.348 15.2819 127.348 15.1369ZM136.01 19.4854C136.01 19.4854 135.077 20.7899 131.746 20.7899C128.414 20.7899 127.615 17.891 127.615 17.891C132.545 17.891 136.809 17.6011 136.809 13.2526C136.809 8.90409 132.279 7.45459 129.614 7.45459C125.216 7.45459 121.885 11.2233 121.885 16.2965C121.885 21.9495 126.149 24.8485 129.614 24.8485C135.743 24.8485 136.01 19.4854 136.01 19.4854Z" fill="#3B2774"/>
<path d="M147.435 20.1982H143.865C144.14 20.1982 146.748 17.9326 147.572 17.2247C149.906 15.2423 153.888 12.4104 152.79 8.87054C152.515 8.02097 151.966 7.45459 151.966 7.45459C151.966 7.45459 151.691 8.16257 150.868 8.44576C150.593 8.58735 150.181 8.58735 149.906 8.58735C149.632 8.58735 140.021 8.58735 140.021 8.58735C138.785 8.58735 137.686 9.57852 137.686 10.8529C137.686 12.1272 138.648 13.1184 140.021 13.1184H145.65C143.041 14.5344 140.021 16.3751 138.373 18.9238C137.412 20.4814 136.588 22.7469 136.863 24.5876C138.098 23.4549 141.394 22.4637 143.865 22.8885C144.826 23.0301 145.787 23.5965 146.611 24.0212C151.279 26.9947 154.025 21.1893 151.829 18.6406C151.691 18.9238 150.318 20.1982 147.435 20.1982Z" fill="#3B2774"/>
<path d="M42.3321 23.6925C39.4514 20.6907 38.6284 15.5058 38.354 12.2311C38.2168 9.36568 38.354 4.31718 40.686 2.81627C39.8629 1.86115 38.354 1.45181 37.1194 1.45181C34.5131 1.45181 33.1414 3.22561 32.3183 4.45363C32.044 4.86296 27.5172 10.8666 27.5172 10.8666C27.5172 10.8666 23.8135 4.99941 23.4019 4.31718C22.7161 3.36206 21.6187 1.58826 19.4239 1.31537C18.4636 1.17892 16.1317 1.04247 14.8971 2.81627C17.0919 4.59007 17.0919 8.95635 16.5432 11.9582C15.1714 20.9636 11.1934 21.7823 11.1934 21.7823C13.251 27.1037 18.3265 24.9205 19.8354 20.8272C20.7956 18.0982 21.3443 14.6871 21.4815 11.8217L27.1057 20.2814L33.5529 11.8217C32.4555 26.8308 37.8053 31.0606 42.3321 31.0606C46.8589 31.0606 48.505 26.9672 48.505 26.9672C46.0358 26.5579 43.9782 25.3299 42.3321 23.6925Z" fill="#3B2774"/>
<path d="M56.7135 28.697C56.7135 28.9697 56.8628 29.1061 56.8628 29.3788C56.8628 29.3788 56.8628 37.1516 56.8628 37.2879C56.8628 37.9697 57.609 38.5152 58.206 38.5152C58.9522 38.5152 59.6984 37.9697 59.6984 37.2879C59.6984 37.1516 59.6984 30.197 59.6984 30.197C59.6984 29.6516 59.6984 28.9697 59.4 28.4243C59.1015 27.8788 58.206 27.3334 57.3105 27.3334C56.415 27.3334 55.9673 27.8788 55.9673 27.8788C55.9673 27.8788 56.5643 28.1516 56.7135 28.697Z" fill="#3B2774"/>
<path d="M141.038 37.1516C141.038 36.8788 140.888 36.7425 140.888 36.4697C140.888 36.4697 140.888 28.697 140.888 28.5606C140.888 27.8788 140.142 27.3334 139.545 27.3334C138.799 27.3334 138.053 27.8788 138.053 28.5606C138.053 28.697 138.053 35.6516 138.053 35.6516C138.053 36.197 138.053 36.8788 138.351 37.4243C138.65 37.9697 139.545 38.5152 140.441 38.5152C141.336 38.5152 141.784 37.9697 141.784 37.9697C141.784 37.9697 141.187 37.697 141.038 37.1516Z" fill="#3B2774"/>
<path d="M92.9509 31.4672C91.695 31.4672 90.9415 32.5515 90.6903 32.9581C90.6903 32.5515 90.6903 32.2804 90.6903 32.2804C90.6903 31.6027 90.0624 31.1961 89.5601 31.0605C88.9321 31.0605 88.3042 31.6027 88.3042 32.2804C88.3042 32.4159 88.3042 37.1597 88.3042 37.2953C88.3042 37.9729 88.9321 38.5151 89.4345 38.5151C90.0624 38.5151 90.6903 37.9729 90.6903 37.2953C90.6903 37.2953 90.6903 35.6688 90.6903 34.3134C90.8159 33.7713 91.0671 33.2291 91.4439 33.2291C91.9462 33.2291 92.0718 33.9068 92.0718 33.9068V37.2953C92.0718 37.9729 92.6997 38.5151 93.2021 38.5151C93.83 38.5151 94.4579 37.9729 94.4579 37.2953V35.5333C94.5835 33.6358 94.7091 31.4672 92.9509 31.4672Z" fill="#3B2774"/>
<path d="M126.531 31.4672C125.276 31.4672 124.522 32.5515 124.271 32.9581C124.271 32.5515 124.271 32.2804 124.271 32.2804C124.271 31.6027 123.643 31.1961 123.141 31.0605C122.513 31.0605 121.885 31.6027 121.885 32.2804C121.885 32.4159 121.885 37.1597 121.885 37.2953C121.885 37.9729 122.513 38.5151 123.015 38.5151C123.643 38.5151 124.271 37.9729 124.271 37.2953C124.271 37.2953 124.271 35.6688 124.271 34.3134C124.396 33.7713 124.648 33.2291 125.024 33.2291C125.527 33.2291 125.652 33.9068 125.652 33.9068V37.2953C125.652 37.9729 126.28 38.5151 126.783 38.5151C127.411 38.5151 128.039 37.9729 128.039 37.2953V35.5333C128.164 33.6358 128.29 31.4672 126.531 31.4672Z" fill="#3B2774"/>
<path d="M65.6286 31.4672C64.3621 31.4672 63.6021 32.5515 63.3488 32.9581C63.3488 32.5515 63.3488 32.2804 63.3488 32.2804C63.3488 31.6027 62.7156 31.1961 62.2089 31.0605C61.5757 31.0605 60.9424 31.6027 60.9424 32.2804C60.9424 32.4159 60.9424 37.1597 60.9424 37.2953C60.9424 37.9729 61.5757 38.5151 62.0823 38.5151C62.7155 38.5151 63.3488 37.9729 63.3488 37.2953C63.3488 37.2953 63.3488 35.6688 63.3488 34.3134C63.4755 33.7713 63.7288 33.2291 64.1088 33.2291C64.6154 33.2291 64.742 33.9068 64.742 33.9068V37.2953C64.742 37.9729 65.3753 38.5151 65.8819 38.5151C66.5152 38.5151 67.1485 37.9729 67.1485 37.2953V35.5333C67.1485 33.6358 67.4018 31.4672 65.6286 31.4672Z" fill="#3B2774"/>
<path d="M116.91 36.8585C116.219 36.8585 115.804 36.0302 115.804 34.7878C115.804 33.4073 116.219 32.7171 116.91 32.5791C117.463 32.5791 118.015 33.4073 118.015 34.7878C118.015 36.0302 117.601 36.8585 116.91 36.8585ZM116.91 31.0605C114.837 31.0605 113.179 32.7171 113.179 34.7878C113.179 36.8585 114.837 38.5151 116.91 38.5151C118.983 38.5151 120.641 36.8585 120.641 34.7878C120.641 32.7171 118.983 31.0605 116.91 31.0605Z" fill="#3B2774"/>
<path d="M98.731 36.7489C98.1699 36.7489 97.8332 36.0717 97.8332 34.8528C97.8332 33.7693 98.1699 33.0921 98.731 32.9567C99.1798 32.9567 99.6287 33.6339 99.6287 34.8528C99.6287 36.0717 99.292 36.7489 98.731 36.7489ZM101.985 32.2795C101.985 31.6023 101.424 31.0605 100.863 31.0605C100.302 31.0605 99.7409 31.6023 99.7409 32.2795V32.4149C99.5165 32.0086 98.8432 31.196 97.9455 31.196C95.3645 31.196 95.1401 36.7489 96.9355 38.1033C97.3844 38.5096 98.1699 38.645 98.731 38.3742C99.0676 38.2387 99.5165 37.9679 99.7409 37.5615C99.8531 38.1033 100.302 38.5096 100.751 38.5096C101.312 38.5096 101.873 37.9679 101.873 37.2907C101.985 37.2907 101.985 32.4149 101.985 32.2795Z" fill="#3B2774"/>
<path d="M132.904 36.4547C132.231 36.4547 131.827 35.6646 131.827 34.2425C131.827 32.9784 132.231 32.1884 132.904 32.0304C133.443 32.0304 133.981 32.8204 133.981 34.2425C133.981 35.6646 133.577 36.4547 132.904 36.4547ZM136.809 31.2403C136.809 30.4503 136.136 29.8182 135.462 29.8182C134.789 29.8182 134.116 30.4503 134.116 31.2403V31.3983C133.847 30.9243 133.039 29.9762 131.961 29.9762C128.864 29.9762 128.595 36.4547 130.749 38.0348C131.288 38.5088 132.231 38.6668 132.904 38.3508C133.308 38.1928 133.847 37.8768 134.116 37.4027C134.251 38.0348 134.789 38.5088 135.328 38.5088C136.001 38.5088 136.674 37.8768 136.674 37.0867C136.809 37.0867 136.809 31.3983 136.809 31.2403Z" fill="#3B2774"/>
<path d="M111.935 32.4297C111.935 31.6691 111.437 31.2127 110.815 31.0605H110.691C110.193 31.0605 109.447 31.6691 109.447 32.2776V34.8639C109.447 35.6246 109.447 37.1459 109.447 37.1459C109.447 37.9066 109.945 38.363 110.567 38.5151H110.691C111.188 38.5151 111.935 37.9066 111.935 37.298V35.016C111.935 34.2554 111.935 32.4297 111.935 32.4297Z" fill="#3B2774"/>
<path d="M111.935 28.5758C111.935 29.266 111.437 29.8182 110.691 29.8182C110.069 29.8182 109.447 29.266 109.447 28.5758C109.447 27.8856 109.945 27.3334 110.691 27.3334C111.437 27.3334 111.935 27.8856 111.935 28.5758Z" fill="#3B2774"/>
<path d="M85.7462 31.3316C85.0377 31.3316 84.6834 31.8738 84.3291 32.687C84.3291 32.687 84.3291 32.4159 84.3291 32.2804C84.3291 31.6027 83.7387 31.0605 83.2663 31.0605C82.6759 31.0605 82.0854 31.6027 82.0854 32.2804V34.1779V37.2953C82.0854 37.9729 82.6759 38.5151 83.1482 38.5151C83.7387 38.5151 84.3291 37.9729 84.3291 37.2953V34.1779C84.3291 33.7713 84.5653 33.0936 84.9196 33.0936C85.3919 33.0936 84.9196 34.3134 85.9824 34.3134C87.3994 34.449 87.5175 31.3316 85.7462 31.3316Z" fill="#3B2774"/>
<path d="M75.9166 34.4335C76.0658 33.8713 76.2151 33.0281 76.8121 32.747C77.2598 32.4659 78.006 32.747 78.006 33.3092C78.006 33.8713 77.5583 34.2929 76.9613 34.4335H75.9166ZM80.394 36.2605C80.394 36.2605 79.9462 36.8227 78.3045 36.8227C76.5136 36.8227 76.2151 35.5578 76.2151 35.5578C78.7523 35.5578 80.8417 35.4173 80.8417 33.5903C80.8417 31.7632 78.603 31.0605 77.2598 31.0605C75.0211 31.0605 73.3794 32.747 73.3794 34.8551C73.3794 37.2443 75.4688 38.5091 77.2598 38.5091C80.2447 38.6497 80.394 36.2605 80.394 36.2605Z" fill="#3B2774"/>
<path d="M73.3797 36.9861C73.3797 36.9861 72.7251 38.5152 71.5468 38.5152C70.4995 38.5152 69.3212 37.4448 69.3212 36.0686C69.3212 36.0686 69.3212 33.9278 69.3212 32.2457H68.9285C68.7975 32.2457 68.4048 32.0928 68.4048 31.6341C68.4048 31.1753 68.7975 31.0224 68.9285 31.0224H69.1903C69.1903 30.4108 69.1903 29.952 69.1903 29.952C69.1903 29.1875 69.8449 28.5758 70.4995 28.5758C71.1541 28.5758 71.6777 29.1875 71.6777 29.952V30.8695H72.7251C72.856 30.8695 73.2487 31.0224 73.2487 31.4812C73.2487 32.0928 72.856 32.0928 72.7251 32.0928H71.6777V35.304C71.6777 36.3744 72.4632 36.9861 73.3797 36.9861Z" fill="#3B2774"/>
<path d="M108.203 37.1772C108.203 37.1772 107.549 38.5152 106.371 38.5152C105.323 38.5152 104.145 37.5786 104.145 36.3744C104.145 36.3744 104.145 34.5012 104.145 33.0294H103.752C103.621 33.0294 103.229 32.8956 103.229 32.4942C103.229 32.0928 103.621 31.959 103.752 31.959H104.014C104.014 31.4238 104.014 31.0224 104.014 31.0224C104.014 30.3534 104.669 29.8182 105.323 29.8182C105.978 29.8182 106.501 30.3534 106.501 31.0224V31.8252H107.549C107.68 31.8252 108.072 31.959 108.072 32.3604C108.072 32.8956 107.68 32.8956 107.549 32.8956H106.501V35.7054C106.632 36.642 107.418 37.1772 108.203 37.1772Z" fill="#3B2774"/>
<path d="M7.32152 56.5994C7.32152 56.7374 7.32152 56.7374 7.32152 56.8755C7.32152 57.0135 7.32152 57.0135 7.18072 57.1515C7.18072 57.1515 7.03992 57.2896 7.03992 57.4276C6.89912 57.8418 6.61753 58.1179 6.33593 58.394C6.05433 58.532 5.91354 58.6701 5.63194 58.8081C5.35034 58.9462 5.06874 59.0842 4.92795 59.2223C4.64635 59.3603 4.36475 59.4983 4.08316 59.4983C3.80156 59.4983 3.66076 59.4983 3.37916 59.4983C3.23836 59.4983 2.95677 59.4983 2.81597 59.4983C2.39357 59.4983 2.39357 59.4983 1.97118 59.3603C1.54878 59.2223 1.26719 58.9462 0.985589 58.532C0.985589 58.532 0.985589 58.6701 0.985589 58.8081C0.985589 58.9462 0.985589 59.0842 0.985589 59.2223C0.985589 59.3603 0.844791 59.6364 0.703992 59.6364C0.563194 59.6364 0.422395 59.6364 0.281597 59.4983C0.140798 59.3603 0.140798 59.2223 0.140798 59.2223C0.140798 59.0842 0.140798 58.9462 0.140798 58.8081C0.140798 58.6701 0.140798 58.532 0.140798 58.2559C0.140798 58.1179 0.140798 57.5657 0.140798 57.1515C0.140798 56.4613 0.140798 55.7711 0.140798 55.633C0.140798 55.495 0.140798 55.2189 0.281597 55.0808C0.281597 54.9428 0.281597 54.9428 0.422395 54.9428L0.563194 54.8047L0.703992 54.9428C0.844791 55.0808 0.844791 55.2189 0.844791 55.3569C0.844791 55.495 0.844791 55.9091 0.844791 56.1852C0.844791 56.4613 0.844791 56.7374 0.844791 57.0135C0.844791 57.2896 0.844791 57.4276 0.985589 57.5657C1.12639 57.7037 1.26719 57.8418 1.40798 58.1179C1.54878 58.394 1.68958 58.394 1.97118 58.532C2.11198 58.532 2.67517 58.6701 2.81597 58.6701C3.09757 58.6701 3.09757 58.532 3.37916 58.532C3.66076 58.394 3.94236 58.532 4.08316 58.394C4.22395 58.2559 4.50555 58.1179 4.50555 57.9798C4.64635 57.8418 4.64635 57.7037 4.64635 57.5657C4.64635 57.4276 4.64635 57.4276 4.64635 57.2896C4.50555 57.0135 4.36475 56.8755 4.36475 56.7374C4.22395 56.1852 4.22395 55.9091 4.08316 55.633C3.80156 55.2189 3.37916 54.8047 2.95677 54.3906C2.67517 53.9765 2.25278 53.5623 1.83038 53.2862C1.40798 52.8721 1.12639 52.4579 0.703992 52.0438C0.422395 51.6297 0.281597 51.0775 0.140798 50.5253C0.140798 50.2492 0 49.697 0 49.2829C0 48.7307 0.281597 48.3165 0.563194 47.7643C0.844791 47.3502 1.26719 46.9361 1.68958 46.66C2.11198 46.3839 2.39357 46.3839 2.95677 46.2458C3.23836 46.2458 3.37916 46.1078 3.66076 46.1078C3.94236 46.1078 4.08316 46.1078 4.22395 46.2458C4.36475 46.2458 4.64635 46.3839 4.92795 46.5219C5.20954 46.66 5.49114 46.66 5.63194 46.9361C5.63194 46.66 5.63194 46.3839 5.77274 46.2458C5.77274 46.1078 5.77274 46.1078 5.91354 46.1078C5.91354 46.1078 6.05433 45.9697 6.19513 45.9697L6.33593 46.1078C6.47673 46.2458 6.47673 46.3839 6.47673 46.5219C6.47673 46.66 6.47673 47.3502 6.47673 47.7643C6.47673 48.1785 6.47673 48.4546 6.47673 48.7307C6.47673 49.2829 6.47673 49.4209 6.47673 49.9731C6.47673 50.2492 6.47673 50.8014 6.05433 50.8014C5.91354 50.8014 5.77274 50.8014 5.63194 50.6633C5.49114 50.5253 5.49114 50.3872 5.49114 50.3872C5.49114 50.2492 5.49114 50.1111 5.49114 49.9731C5.49114 49.835 5.49114 49.697 5.49114 49.4209C5.49114 49.2829 5.49114 49.0068 5.49114 48.7307C5.49114 48.5926 5.49114 48.3165 5.35034 48.1785C5.20954 47.9024 5.20954 47.7643 4.92795 47.6263C4.78715 47.4882 4.64635 47.3502 4.36475 47.3502C4.22395 47.3502 3.94236 47.2121 3.66076 47.2121C3.37916 47.2121 3.09757 47.2122 2.95677 47.3502C2.81597 47.4882 2.81597 47.6263 2.67517 47.7643C2.53437 47.9024 2.39357 48.1785 2.39357 48.4546C2.39357 48.7307 2.25278 48.8687 2.25278 49.1448C2.25278 49.2829 2.39357 49.4209 2.39357 49.4209C2.39357 49.559 2.39357 49.697 2.39357 49.835C2.39357 49.9731 2.67517 50.1111 2.81597 50.2492C2.95677 50.3872 3.09757 50.6633 3.23836 50.8014C3.37916 51.0775 3.66076 51.2155 3.80156 51.4916C4.22395 51.6297 4.50555 51.7677 4.64635 51.9058C4.92795 52.1818 5.35034 52.596 5.77274 52.8721C5.91354 53.0101 6.05433 53.2862 6.19513 53.4243C6.19513 53.4243 6.33593 53.4243 6.33593 53.5623C6.47673 53.7004 6.47673 53.7004 6.47673 53.8384C6.61753 53.9765 6.89912 54.2526 7.03992 54.3906C7.18072 54.5286 7.18072 54.8047 7.32152 55.0808C7.46232 55.2189 7.46232 55.495 7.46232 55.633C7.46232 55.7711 7.46232 55.7711 7.46232 55.9091C7.46232 56.0472 7.46232 56.1852 7.32152 56.3233C7.32152 56.4613 7.32152 56.4613 7.32152 56.5994Z" fill="#3B2774"/>
<path d="M16.867 46.8329C17.0033 46.8329 17.4122 46.8329 17.4122 47.1206C17.4122 47.2645 17.4122 47.4083 17.2759 47.4083C17.2759 47.5522 17.1396 47.5522 17.0033 47.5522C16.867 47.5522 16.7307 47.5522 16.7307 47.5522C16.7307 47.5522 16.4581 47.5522 16.1855 47.5522C16.1855 47.696 16.1855 47.8399 16.1855 47.9838C16.1855 48.2715 16.1855 48.4153 16.1855 48.7031C16.1855 49.1346 16.1855 49.4224 16.3218 49.8539C16.3218 50.2855 16.3218 50.5732 16.3218 51.0048C16.3218 51.2925 16.3218 51.5803 16.3218 51.868C16.3218 52.1557 16.3218 52.5873 16.3218 52.875C16.3218 53.1627 16.1855 53.4504 16.1855 53.882C16.1855 54.1697 16.1855 54.4574 16.1855 54.889C16.1855 55.3206 16.1855 55.6083 16.1855 56.0399C16.1855 56.3276 16.1855 56.6153 16.1855 56.9031C16.1855 57.1908 16.1855 57.4785 16.1855 57.7662C16.1855 58.0539 16.3218 58.4855 16.3218 58.7732C16.3218 59.061 16.3218 59.2048 16.0492 59.3487C15.7766 59.6364 15.504 59.6364 15.0951 59.6364C14.8225 59.6364 14.5499 59.4925 14.2773 59.4925C14.0047 59.3487 13.7321 59.2048 13.5958 59.061C13.1869 58.6294 12.9143 58.1978 12.6417 57.6224C12.3691 57.0469 12.0965 56.4715 11.9602 55.7522C11.8239 55.4645 11.6876 55.0329 11.5513 54.7452C11.415 54.1697 11.1425 53.5943 11.0062 53.0189C10.8699 52.5873 10.7336 52.2996 10.5973 51.868C10.461 51.5803 10.3247 51.2925 10.1884 51.0048C10.1884 50.861 10.0521 50.861 10.0521 50.861C10.0521 50.861 9.91577 51.0048 9.91577 51.1487C9.91577 51.2925 9.91577 51.2925 9.91577 51.4364C9.91577 51.7241 9.91577 52.1557 9.91577 52.4434C9.91577 53.1627 9.91577 53.7381 10.0521 54.4574C10.0521 54.6013 10.0521 54.889 10.0521 55.0329C10.0521 55.4645 10.0521 55.896 10.0521 56.3276C10.0521 56.9031 10.0521 57.3346 10.0521 57.9101C10.0521 58.0539 10.0521 58.1978 10.0521 58.3417C10.0521 58.4855 10.0521 58.7732 10.0521 58.9171C10.461 58.9171 10.7336 58.9171 10.8699 58.9171C11.0062 58.9171 11.415 58.9171 11.415 59.2048C11.415 59.3487 11.415 59.4925 11.2787 59.4925C11.2787 59.6364 11.1425 59.6364 11.0062 59.6364C10.8699 59.6364 10.7336 59.6364 10.7336 59.6364C10.7336 59.6364 10.3247 59.6364 10.0521 59.6364C9.77947 59.6364 9.37058 59.6364 9.37058 59.6364C9.09798 59.6364 8.68909 59.6364 8.55279 59.6364C8.41649 59.6364 8.28019 59.6364 8.14389 59.6364C8.00759 59.6364 7.8713 59.6364 7.735 59.4925C7.5987 59.4925 7.4624 59.2048 7.4624 59.2048V59.061C7.5987 58.9171 7.735 58.9171 7.735 58.9171C8.0076 58.9171 8.55279 58.7732 8.55279 58.7732H8.68909C8.68909 57.9101 8.68909 57.0469 8.68909 56.1838C8.68909 55.896 8.68909 55.6083 8.68909 55.4645C8.68909 54.6013 8.68909 53.5943 8.68909 52.7311C8.68909 52.1557 8.68909 51.7241 8.68909 51.1487C8.68909 50.5732 8.68909 49.9978 8.68909 49.4224C8.68909 48.7031 8.68909 47.9838 8.68909 47.2645H8.55279C8.41649 47.2645 8.28019 47.2645 8.14389 47.2645C8.00759 47.2645 7.8713 47.2645 7.735 47.1206C7.5987 47.1206 7.4624 46.8329 7.4624 46.8329V46.689C7.5987 46.5452 7.735 46.5452 7.735 46.5452C8.0076 46.5452 8.68909 46.4013 8.82538 46.4013C8.96168 46.4013 9.23428 46.4013 9.37058 46.4013C9.50687 46.2574 9.64317 46.2574 9.77947 46.1136C9.91577 45.9697 10.0521 45.9697 10.3247 45.9697C10.5973 45.9697 10.8699 46.1136 11.0062 46.4013C11.1425 46.689 11.2787 46.8329 11.415 46.9767C11.5513 47.2645 11.5513 47.5522 11.6876 47.8399C11.9602 48.5592 12.0965 48.8469 12.0965 48.9908C12.2328 49.2785 12.3691 49.5662 12.3691 49.8539C12.5054 50.1417 12.5054 50.4294 12.6417 50.7171C12.778 51.0048 12.6417 51.2925 12.9143 51.4364C13.1869 51.868 13.4595 52.5873 13.5958 53.1627C13.5958 53.4504 13.7321 53.7382 13.8684 54.0259C14.0047 54.3136 14.0047 54.6013 14.141 54.889C14.141 55.1767 14.2773 55.4645 14.4136 55.7522C14.4136 55.896 14.5499 56.0399 14.6862 56.0399C14.6862 56.1838 14.6862 56.3276 14.8225 56.4715C14.8225 56.6153 14.9588 56.9031 14.9588 57.0469C14.9588 57.1908 15.0951 57.1908 15.0951 57.1908C15.0951 57.1908 15.2314 57.1908 15.2314 57.0469V56.9031C15.2314 56.6153 15.2314 56.1838 15.2314 55.896C15.2314 55.1767 15.2314 54.4574 15.2314 53.7381C15.2314 53.1627 15.0951 52.4434 15.0951 51.868C15.0951 51.4364 15.0951 51.0048 15.0951 50.4294C15.0951 50.1417 15.0951 49.8539 15.0951 49.5662C15.0951 49.1346 15.0951 48.7031 15.0951 48.2715C15.0951 48.1276 15.0951 47.8399 15.0951 47.696C14.9588 47.696 14.6862 47.696 14.5499 47.696C14.4136 47.696 14.2773 47.696 14.141 47.696C14.0047 47.696 13.8684 47.696 13.7321 47.5522C13.5958 47.5522 13.4595 47.2645 13.4595 47.2645V47.1206C13.5958 46.9767 13.7321 46.9767 13.7321 46.9767C14.0047 46.9767 14.6862 46.8329 14.8225 46.8329C14.9588 46.8329 15.0951 46.8329 15.2314 46.8329C15.3677 46.689 15.504 46.689 15.6403 46.689C15.7766 46.689 15.9129 46.689 15.9129 46.8329C16.3218 46.8329 16.7307 46.8329 16.867 46.8329Z" fill="#3B2774"/>
<path d="M27.3618 59.0951C27.3618 59.2305 27.2392 59.2305 27.2392 59.3658C27.1166 59.5011 26.9939 59.5011 26.9939 59.5011C26.8713 59.5011 26.6261 59.5011 26.5035 59.5011C26.3808 59.5011 26.2582 59.5011 26.1356 59.5011H26.013C25.8904 59.5011 25.8904 59.5011 25.7677 59.6364C25.6451 59.6364 25.5225 59.6364 25.5225 59.6364C25.2773 59.6364 25.032 59.6364 24.9094 59.5011H24.5415C24.1737 59.5011 23.8058 59.5011 23.6832 59.5011C23.5606 59.5011 23.3153 59.5011 23.1927 59.3658C23.0701 59.3658 22.9475 59.2305 22.9475 59.0951C22.9475 58.8245 23.1927 58.8245 23.438 58.8245C23.5606 58.8245 23.6832 58.8245 23.9284 58.8245C23.9284 58.6892 23.9284 58.5539 23.9284 58.4186C23.9284 58.2833 23.9284 58.0126 23.9284 57.8773C23.9284 57.742 23.9284 57.742 23.9284 57.6067C23.9284 57.4714 23.9284 57.3361 23.9284 57.3361C23.9284 57.2007 23.9284 57.2008 23.8058 57.0654C23.8058 56.7948 23.6832 56.6595 23.6832 56.3889C23.6832 56.2536 23.6832 55.9829 23.6832 55.8476C23.6832 55.577 23.6832 55.4417 23.5606 55.171C23.5606 55.0357 23.5606 55.0357 23.438 55.0357H23.3153C23.0701 55.0357 22.9475 55.0357 22.7022 55.0357C22.457 55.0357 22.3344 55.0357 22.0891 55.0357C21.9665 55.0357 21.7213 55.0357 21.5986 55.0357C21.476 55.0357 21.3534 55.0357 21.2308 55.0357C21.1082 55.0357 21.1082 55.171 21.1082 55.3064C21.1082 55.4417 20.9855 55.7123 20.9855 55.9829C20.8629 56.3889 20.8629 56.6595 20.7403 57.0654C20.6177 57.4714 20.4951 58.1479 20.3724 58.5539C20.4951 58.5539 20.7403 58.5539 20.9855 58.5539C21.2308 58.5539 21.5986 58.5539 21.5986 58.8245C21.5986 58.9598 21.5986 58.9598 21.476 59.0951C21.3534 59.2305 21.2308 59.2305 21.2308 59.2305C21.1082 59.2305 20.9855 59.2305 20.8629 59.2305C20.7403 59.2305 20.6177 59.2305 20.4951 59.2305C20.2498 59.2305 20.0046 59.2305 19.7593 59.2305C19.6367 59.2305 19.5141 59.2305 19.3915 59.2305C19.2689 59.2305 19.0236 59.2305 18.901 59.0951C18.7784 59.0951 18.6558 58.8245 18.6558 58.8245C18.6558 58.8245 18.6558 58.6892 18.7784 58.6892C18.901 58.5539 19.0236 58.5539 19.1462 58.5539C19.3915 58.5539 19.6367 58.5539 19.882 58.4186C19.882 58.1479 19.882 58.0126 20.0046 57.8773C20.1272 57.4714 20.1272 57.0654 20.2498 56.5242C20.2498 56.2536 20.3724 55.8476 20.3724 55.4417C20.3724 55.3064 20.4951 55.0357 20.4951 54.9004C20.4951 54.7651 20.1272 54.7651 20.0046 54.6298C19.882 54.6298 19.882 54.4945 19.882 54.3592C19.882 54.2239 20.0046 54.0885 20.2498 54.0885C20.3724 54.0885 20.6177 54.0885 20.7403 53.9532C20.8629 53.8179 20.8629 53.5473 20.8629 53.412C20.9855 53.006 21.1082 52.6001 21.2308 52.1941C21.3534 51.7882 21.476 51.3823 21.5986 50.841C21.7213 50.4351 21.7213 50.0291 21.8439 49.6232C21.9665 49.2173 21.9665 48.8113 22.0891 48.4054C22.2117 47.9994 22.3344 47.5935 22.5796 47.1875L22.7022 46.7816C22.8249 46.6463 22.8249 46.3757 22.9475 46.2404C23.1927 45.9697 23.6832 45.9697 23.9284 45.9697C24.1737 45.9697 24.2963 45.9697 24.4189 46.105C24.5415 46.2404 24.5415 46.3757 24.6642 46.511C24.7868 46.6463 24.9094 46.7816 24.9094 46.9169C24.9094 47.0522 24.9094 47.1875 25.032 47.3229C25.1546 47.5935 25.1546 47.9994 25.1546 48.2701C25.2773 48.5407 25.3999 48.9466 25.3999 49.2172C25.3999 49.6232 25.5225 50.0291 25.5225 50.2998C25.6451 50.7057 25.6451 50.9763 25.6451 51.3823C25.6451 51.5176 25.6451 51.7882 25.7677 51.9235C25.7677 52.1941 25.8904 52.4648 25.8904 52.6001C25.8904 52.7354 25.8904 52.8707 26.013 53.1413C26.013 53.2767 26.1356 53.412 26.1356 53.5473C26.1356 53.5473 26.2582 53.5473 26.3808 53.5473C26.5035 53.5473 26.5035 53.5473 26.6261 53.5473C26.7487 53.5473 26.9939 53.5473 27.1166 53.8179V53.9532C27.1166 53.9532 27.1166 54.0885 26.9939 54.0885C26.8713 54.2239 26.7487 54.3592 26.6261 54.3592C26.6261 54.3592 26.5035 54.3592 26.3808 54.3592H26.2582C26.2582 54.3592 26.2582 54.3592 26.2582 54.4945C26.2582 54.4945 26.2582 54.6298 26.2582 54.7651C26.2582 54.9004 26.2582 54.9004 26.2582 55.0357V55.3064C26.2582 55.4417 26.2582 55.4417 26.2582 55.577C26.2582 55.7123 26.3808 55.9829 26.3808 56.1182C26.3808 56.2536 26.5035 56.5242 26.5035 56.6595C26.5035 56.9301 26.6261 57.0654 26.6261 57.2008C26.6261 57.4714 26.6261 57.6067 26.7487 57.8773C26.7487 58.0126 26.7487 58.0126 26.7487 58.1479C26.8713 58.1479 26.9939 58.1479 27.2392 58.1479C27.1166 58.6892 27.3618 58.9598 27.3618 59.0951ZM23.0701 53.9532C23.0701 53.8179 23.0701 53.6826 23.0701 53.5473C23.0701 53.2767 22.9475 53.1413 22.9475 52.8707C22.9475 52.3295 22.9475 51.6529 22.9475 51.1116C22.9475 50.841 22.9475 50.5704 22.8249 50.2998C22.8249 50.0291 22.7022 49.7585 22.7022 49.3526C22.7022 49.2173 22.7022 48.8113 22.7022 48.5407C22.7022 48.2701 22.5796 48.1347 22.5796 48.1347C22.457 48.1347 22.2117 48.4054 22.2117 48.5407C22.2117 48.8113 22.0891 48.9466 22.0891 49.2172C22.0891 49.3526 22.0891 49.4879 22.0891 49.4879C22.0891 49.6232 22.0891 49.7585 22.0891 49.7585C21.9665 50.0291 21.9665 50.2998 21.9665 50.4351C21.8439 50.9763 21.7213 51.3823 21.5986 51.7882C21.5986 52.0588 21.476 52.1941 21.476 52.4648C21.476 52.7354 21.3534 53.006 21.3534 53.2767C21.3534 53.412 21.2308 53.6826 21.2308 53.8179C21.2308 53.8179 21.2308 53.8179 21.3534 53.8179C21.476 53.8179 21.7213 53.8179 21.7213 53.8179C21.8439 53.8179 21.9665 53.8179 22.0891 53.8179C22.2117 53.8179 22.3344 53.8179 22.457 53.8179C22.5796 53.8179 22.7022 53.8179 22.9475 53.8179C22.8249 54.0885 22.8249 54.0885 23.0701 53.9532C23.0701 54.0885 22.9475 54.0885 23.0701 53.9532Z" fill="#3B2774"/>
<path d="M34.8241 58.7997C34.8241 59.0786 34.8241 59.6364 34.4509 59.6364C34.3266 59.6364 34.2022 59.6364 34.2022 59.4969C34.0778 59.3575 34.0778 59.218 34.0778 59.218C33.9535 58.7997 34.0778 58.5207 34.0778 58.2418C33.9535 58.3813 33.7047 58.7997 33.5803 58.9391C33.2072 59.3575 32.7097 59.6364 32.0879 59.6364C31.9635 59.6364 31.8391 59.6364 31.7148 59.6364C31.3417 59.4969 30.8442 59.3575 30.471 59.218C30.0979 59.0786 29.8492 58.7997 29.6004 58.5207C29.3517 58.2418 29.103 57.8235 28.9786 57.4051C28.8542 56.9867 28.7298 56.5684 28.7298 56.15C28.7298 55.5922 28.6055 55.1738 28.6055 54.616C28.6055 54.0582 28.6055 53.6398 28.6055 53.2214C28.6055 52.8031 28.6055 52.2452 28.7298 51.8269C28.8542 51.4085 28.9786 50.8507 29.103 50.4323C29.2273 50.0139 29.3517 49.4561 29.6004 49.0377C29.7248 48.6194 29.9736 48.3405 30.2223 47.9221C30.471 47.6432 30.7198 47.2248 30.9685 46.9459C31.2173 46.667 31.5904 46.5275 31.9635 46.3881C32.2123 46.2486 32.461 46.2486 32.8341 46.2486C32.9585 46.2486 33.0829 46.2486 33.2072 46.2486C33.3316 46.2486 33.456 46.3881 33.5803 46.5275C33.7047 46.667 33.7047 46.8065 33.8291 46.9459C33.9535 47.0854 33.9535 47.2248 34.0778 47.3643C34.0778 47.2248 34.0778 46.9459 34.0778 46.8065C34.0778 46.667 34.0778 46.3881 34.2022 46.2486C34.2022 46.1092 34.2022 46.1092 34.3266 46.1092L34.4509 45.9697L34.5753 46.1092C34.6997 46.2486 34.6997 46.3881 34.6997 46.5275C34.6997 46.667 34.6997 47.0854 34.6997 47.3643C34.6997 47.9221 34.6997 48.4799 34.6997 48.6194C34.6997 49.0378 34.6997 49.3167 34.6997 49.735V49.8745C34.6997 50.0139 34.6997 50.0139 34.6997 50.1534C34.6997 50.4323 34.5753 50.5718 34.4509 50.5718C34.3266 50.5718 34.2022 50.5718 34.2022 50.4323C34.0778 50.4323 34.0778 50.2929 34.0778 50.1534C33.9535 49.735 34.0778 49.5956 34.0778 49.3167V49.1772C33.9535 48.7588 33.9535 48.4799 33.8291 48.0616C33.7047 47.7827 33.3316 47.2248 32.9585 47.2248C32.7097 47.2248 32.5854 47.3643 32.3366 47.5037C32.2123 47.5037 32.2123 47.6432 32.2123 47.6432L32.0879 47.7827C31.9635 47.9221 32.0879 48.201 31.9635 48.3405C31.8391 48.6194 31.8391 48.7588 31.8391 49.0377C31.7148 49.4561 31.7148 49.8745 31.5904 50.2929C31.466 50.7112 31.466 51.1296 31.466 51.548C31.466 51.6874 31.466 51.6874 31.466 51.8269C31.466 51.9663 31.466 51.9663 31.466 52.1058C31.466 52.2452 31.466 52.3847 31.466 52.5241V52.6636C31.466 52.8031 31.466 52.8031 31.466 52.9425V53.082C31.466 53.082 31.466 53.2214 31.466 53.3609C31.466 53.5003 31.466 53.6398 31.466 53.7792C31.466 54.1976 31.5904 54.7554 31.5904 55.1738C31.5904 55.5922 31.5904 56.15 31.7148 56.5684C31.7148 56.7078 31.7148 56.9867 31.8391 57.1262C31.8391 57.2656 32.0879 57.5446 32.0879 57.684C32.2123 58.1024 32.461 58.3813 32.8341 58.3813C33.2072 58.3813 33.7047 57.9629 33.8291 57.5446C33.9535 57.2656 34.0778 57.1262 34.2022 56.8473C34.2022 56.2895 34.2022 55.5922 34.2022 55.4527C34.2022 55.3133 34.2022 55.0344 34.3266 54.8949C34.3266 54.7554 34.3266 54.7554 34.4509 54.616L34.5753 54.4765L34.6997 54.616C34.8241 54.7554 34.8241 54.8949 34.8241 55.0344C34.8241 55.1738 34.8241 56.0105 34.8241 56.4289C34.8241 56.9867 34.8241 57.5446 34.8241 57.684C34.8241 58.2418 34.8241 58.3813 34.8241 58.7997Z" fill="#3B2774"/>
<path d="M42.0938 51.9058C41.9536 52.1818 41.6734 52.4579 41.6734 52.734C41.6734 52.8721 42.0938 52.8721 42.3741 53.1482C42.7945 53.2862 43.2149 53.7004 43.4952 54.1145C43.6353 54.3906 43.7754 54.5287 43.7754 54.6667C43.9156 54.9428 43.9156 55.0808 44.0557 55.3569C44.0557 55.633 44.1958 55.7711 44.1958 56.0472C44.336 56.3233 44.336 56.5994 44.336 56.7374C44.336 56.8755 44.336 57.1515 44.4761 57.2896C44.4761 57.4276 44.6163 57.4276 44.6163 57.5657C44.6163 57.7037 44.7564 57.8418 44.7564 57.8418C44.7564 58.1179 44.8965 58.2559 45.0367 58.394C45.1768 58.6701 45.3169 58.6701 45.4571 58.8081C45.5972 58.8081 45.7374 59.0842 45.7374 59.2223V59.3603C45.5972 59.4983 45.3169 59.6364 45.0367 59.6364C44.7564 59.6364 44.336 59.6364 44.0557 59.4983C43.6353 59.3603 43.2149 58.9462 43.0747 58.8081C42.9346 58.6701 42.7945 58.532 42.6543 58.2559C42.5142 58.1179 42.5142 57.8418 42.3741 57.5657C42.2339 57.1515 42.0938 56.8755 41.9536 56.3233C41.8135 56.0472 41.8135 55.633 41.6734 55.3569C41.6734 55.2189 41.5332 54.9428 41.5332 54.8047C41.5332 54.6667 41.3931 54.5286 41.3931 54.3906C41.253 54.1145 41.253 53.9765 40.9727 53.9765C40.9727 53.9765 40.8325 53.9765 40.8325 54.1145C40.6924 54.2526 40.5523 54.3906 40.4121 54.5286C40.272 54.6667 40.1319 54.9428 40.1319 55.2189C40.1319 55.3569 40.1319 55.495 40.1319 55.633C40.1319 55.633 40.1319 55.633 40.1319 55.7711C40.1319 55.9091 40.1319 56.1852 40.1319 56.4613C40.1319 57.0135 40.1319 57.4276 40.1319 57.9798C40.1319 58.1179 40.1319 58.394 40.1319 58.532C40.4121 58.532 40.5523 58.532 40.6924 58.532C40.9727 58.532 41.5332 58.532 41.5332 58.8081C41.5332 58.9462 41.5332 59.0842 41.3931 59.0842C41.253 59.2223 41.1128 59.2223 40.9727 59.2223C40.8325 59.2223 40.6924 59.2223 40.5523 59.2223C40.5523 59.2223 40.1319 59.2223 39.8516 59.2223C39.7114 59.3603 39.5713 59.3603 39.4312 59.3603C39.291 59.3603 39.0108 59.3603 38.8706 59.2223H38.5903C38.3101 59.2223 37.7495 59.2223 37.4692 59.2223C37.3291 59.2223 37.189 59.2223 36.9087 59.2223C36.7686 59.2223 36.4883 59.2223 36.3481 59.0842C36.208 59.0842 36.0679 58.8081 36.0679 58.8081C36.0679 58.8081 36.0679 58.6701 36.208 58.6701C36.3481 58.532 36.4883 58.532 36.6284 58.532C37.0488 58.532 37.4692 58.394 37.6094 58.394C37.7495 58.394 37.8897 58.394 38.0298 58.394V58.2559C37.7495 57.8418 37.7495 57.2896 37.7495 56.8755C37.7495 56.3233 37.7495 55.7711 37.7495 55.0808C37.7495 54.3906 37.7495 53.8384 37.7495 53.1482C37.7495 52.596 37.7495 52.0438 37.7495 51.4916C37.7495 50.9394 37.7495 50.5253 37.7495 49.9731C37.7495 49.697 37.7495 49.4209 37.7495 49.0068C37.7495 48.7307 37.7495 48.4546 37.7495 48.3165C37.7495 47.9024 37.7495 47.4882 37.7495 47.0741C37.7495 47.0741 37.7495 47.0741 37.4692 47.0741C37.3291 47.0741 37.189 47.0741 36.9087 47.0741C36.7686 47.0741 36.4883 47.0741 36.3481 46.9361C36.208 46.9361 36.0679 46.66 36.0679 46.66C36.0679 46.66 36.0679 46.5219 36.208 46.5219C36.3481 46.3839 36.4883 46.3839 36.6284 46.3839C37.0488 46.3839 37.6094 46.2458 37.7495 46.2458H37.8897C38.0298 46.1078 38.1699 45.9697 38.4502 45.9697H38.5903C38.7305 45.9697 39.0108 46.1078 39.1509 46.1078C39.8516 46.1078 40.5523 46.1078 40.8325 46.1078C41.1128 46.1078 41.6734 46.1078 41.6734 46.3839C41.6734 46.5219 41.6734 46.66 41.5332 46.66C41.3931 46.798 41.253 46.798 41.1128 46.798C40.9727 46.798 40.8325 46.798 40.6924 46.798C40.5523 46.798 40.1319 46.798 39.7114 46.798C39.8516 46.9361 39.8516 47.0741 39.8516 47.3502C39.8516 47.4882 39.8516 47.4882 39.8516 47.6263C39.8516 47.7643 39.8516 47.7643 39.8516 47.7643C39.8516 47.9024 39.8516 48.1785 39.9917 48.4546V48.5926C39.9917 48.7307 39.9917 48.8687 39.9917 49.0068C39.9917 49.2829 39.9917 49.559 40.1319 49.835C40.1319 50.1111 40.272 50.2492 40.272 50.5253C40.272 50.6633 40.272 50.9394 40.272 51.0775V51.2155C40.272 51.3536 40.272 51.4916 40.272 51.6297C40.272 51.7677 40.272 51.9058 40.272 52.0438C40.272 52.1818 40.272 52.3199 40.4121 52.3199C40.5523 52.3199 40.5523 52.1818 40.6924 52.0438C40.8325 51.7677 40.9727 51.4916 41.1128 51.3536C41.253 51.2155 41.253 50.9394 41.3931 50.8014C41.5332 50.5253 41.8135 50.2492 41.9536 49.835C42.0938 49.559 42.2339 49.2829 42.3741 49.1448C42.5142 48.8687 42.7945 48.4546 42.9346 48.1785C43.0747 47.7643 43.355 47.3502 43.4952 47.0741C43.4952 47.0741 43.4952 47.0741 43.4952 46.9361C43.355 46.9361 43.355 46.9361 43.2149 46.9361C43.0747 46.9361 42.9346 46.9361 42.7945 46.798C42.6543 46.798 42.5142 46.5219 42.5142 46.5219V46.3839C42.5142 46.2458 42.7945 46.2458 42.7945 46.2458C43.0747 46.2458 43.355 46.1078 43.4952 46.1078C43.6353 46.1078 43.6353 46.1078 43.7754 46.1078C43.7754 46.1078 43.7754 46.1078 43.9156 46.1078C44.0557 46.1078 44.0557 45.9697 44.1958 45.9697C44.336 45.9697 44.336 45.9697 44.4761 45.9697H44.6163C45.0367 45.9697 45.3169 45.9697 45.4571 45.9697C45.5972 45.9697 46.0176 45.9697 46.0176 46.2458C46.0176 46.3839 46.0176 46.5219 45.8775 46.5219C45.8775 46.66 45.7374 46.66 45.5972 46.66C45.4571 46.66 45.3169 46.66 45.3169 46.66C45.3169 46.66 44.8965 46.66 44.4761 46.66C44.336 46.798 44.336 46.9361 44.1958 47.0741C43.9156 47.4882 43.7754 47.9024 43.6353 48.1785C43.355 48.5926 43.2149 49.1448 43.0747 49.559C42.6543 51.0775 42.3741 51.4916 42.0938 51.9058Z" fill="#3B2774"/>
<path d="M51.4899 58.9171C51.7386 58.9171 52.2361 58.9171 52.2361 59.2048C52.2361 59.3487 52.2361 59.3487 52.1117 59.4925C51.9874 59.6364 51.863 59.6364 51.7386 59.6364C51.6142 59.6364 51.4899 59.6364 51.3655 59.6364C51.3655 59.6364 50.9924 59.6364 50.6193 59.6364C50.1218 59.6364 49.6243 59.6364 49.6243 59.6364C49.3756 59.6364 48.8781 59.6364 48.6293 59.6364C48.5049 59.6364 48.3806 59.6364 48.1318 59.6364C48.0075 59.6364 47.7587 59.6364 47.6343 59.4925C47.51 59.4925 47.3856 59.2048 47.3856 59.2048C47.3856 59.2048 47.3856 59.061 47.51 59.061C47.6343 58.9171 47.7587 58.9171 47.8831 58.9171C48.2562 58.9171 48.6293 58.7732 48.7537 58.7732C48.7537 58.7732 48.8781 58.7732 49.0024 58.7732C48.7537 58.9171 48.6293 58.7732 48.6293 58.4855C48.6293 58.3417 48.6293 58.3417 48.6293 58.1978V58.0539V57.9101C48.6293 57.7662 48.6293 57.4785 48.6293 57.3346C48.6293 57.1908 48.6293 57.1908 48.6293 57.0469C48.6293 56.0399 48.6293 55.0329 48.6293 53.882C48.6293 53.3066 48.6293 52.7311 48.6293 52.2996C48.6293 51.868 48.6293 51.2925 48.6293 50.861C48.6293 50.5732 48.6293 50.2855 48.6293 50.1417V49.1346C48.6293 48.7031 48.6293 48.2715 48.6293 47.696V47.5522H48.505C48.3806 47.5522 48.2562 47.5522 48.0075 47.5522C47.8831 47.5522 47.6343 47.5522 47.51 47.4083C47.3856 47.4083 47.2612 47.1206 47.2612 47.1206V46.9767C47.3856 46.8329 47.51 46.8329 47.6343 46.8329C48.0075 46.8329 48.3806 46.689 48.505 46.689V46.5452C48.505 46.4013 48.505 46.4013 48.505 46.2574C48.505 46.1136 48.7537 46.1136 48.7537 46.1136C48.8781 46.1136 49.0024 45.9697 49.0024 45.9697C49.1268 45.9697 49.1268 45.9697 49.2512 45.9697C49.3756 45.9697 49.4999 45.9697 49.6243 45.9697C49.873 46.1136 50.1218 46.2574 50.2462 46.5452C50.6193 46.5452 50.9924 46.5452 51.1168 46.5452C51.3655 46.5452 51.863 46.5452 51.863 46.8329C51.863 46.9767 51.863 46.9767 51.7386 47.1206C51.6142 47.2645 51.4899 47.2645 51.3655 47.2645C51.2411 47.2645 51.1168 47.2645 50.9924 47.2645C50.9924 47.2645 50.7436 47.2645 50.4949 47.2645C50.4949 47.5522 50.6193 47.8399 50.6193 47.9838C50.6193 48.2715 50.6193 48.5592 50.6193 48.7031C50.6193 48.9908 50.6193 49.1346 50.6193 49.4224C50.6193 49.5662 50.6193 49.7101 50.6193 49.8539C50.6193 49.9978 50.6193 49.9978 50.6193 50.1417C50.7436 50.7171 50.6193 51.1487 50.7436 51.7241C50.7436 52.2996 50.7436 52.875 50.7436 53.4504C50.7436 53.882 50.7436 54.4574 50.7436 54.889C50.7436 55.4645 50.868 55.896 50.868 56.4715C50.868 56.7592 50.868 57.0469 50.868 57.1908C50.868 57.4785 50.868 57.7662 50.868 58.0539C50.868 58.3417 50.868 58.4855 50.7436 58.7732C51.2411 58.9171 51.3655 58.9171 51.4899 58.9171Z" fill="#3B2774"/>
<path d="M61.6483 46.8329C61.7827 46.8329 62.1861 46.8329 62.1861 47.1206C62.1861 47.2645 62.1861 47.4083 62.0516 47.4083C62.0516 47.5522 61.9172 47.5522 61.7827 47.5522C61.6483 47.5522 61.5138 47.5522 61.5138 47.5522C61.5138 47.5522 61.2449 47.5522 60.8415 47.5522C60.8415 47.696 60.8415 47.8399 60.8415 47.9838C60.8415 48.2715 60.8415 48.4153 60.8415 48.7031C60.8415 49.1346 60.8415 49.4224 60.976 49.8539C60.976 50.2855 60.976 50.5732 60.976 51.0048C60.976 51.2925 60.976 51.5803 60.976 51.868C60.976 52.1557 60.976 52.5873 60.976 52.875C60.976 53.1627 60.8415 53.4504 60.8415 53.882C60.8415 54.1697 60.8415 54.4574 60.8415 54.889C60.8415 55.3206 60.8415 55.6083 60.8415 56.0399C60.8415 56.3276 60.8415 56.6153 60.8415 56.9031C60.8415 57.1908 60.8415 57.4785 60.8415 57.7662C60.8415 58.0539 60.976 58.4855 60.976 58.7732C60.976 59.061 60.976 59.2048 60.7071 59.3487C60.4382 59.6364 60.1692 59.6364 59.7659 59.6364C59.497 59.6364 59.228 59.4925 58.9591 59.4925C58.6902 59.3487 58.4213 59.2048 58.2869 59.061C57.8835 58.6294 57.6146 58.1978 57.3457 57.6224C57.0768 57.0469 56.8078 56.4715 56.6734 55.7522C56.5389 55.4645 56.4045 55.0329 56.27 54.7452C56.1356 54.1697 55.8666 53.5943 55.7322 53.0189C55.5977 52.5873 55.4633 52.2996 55.3288 51.868C55.1944 51.5803 55.0599 51.2925 54.9255 51.0048C54.9255 50.861 54.791 50.861 54.791 50.861C54.791 50.861 54.6565 51.0048 54.6565 51.1487C54.6565 51.2925 54.6565 51.2925 54.6565 51.4364C54.6565 51.7241 54.6565 52.1557 54.6565 52.4434C54.6565 53.1627 54.6565 53.7381 54.791 54.4574C54.791 54.6013 54.791 54.889 54.791 55.0329C54.791 55.4645 54.791 55.896 54.791 56.3276C54.791 56.9031 54.791 57.3346 54.791 57.9101C54.791 58.0539 54.791 58.1978 54.791 58.3417C54.791 58.4855 54.791 58.7732 54.791 58.9171C55.1944 58.9171 55.4633 58.9171 55.5977 58.9171C55.7322 58.9171 56.1356 58.9171 56.1356 59.2048C56.1356 59.3487 56.1356 59.4925 56.0011 59.4925C56.0011 59.6364 55.8666 59.6364 55.7322 59.6364C55.5977 59.6364 55.4633 59.6364 55.4633 59.6364C55.4633 59.6364 55.0599 59.6364 54.791 59.6364C54.5221 59.6364 54.1187 59.6364 54.1187 59.6364C53.8498 59.6364 53.4464 59.6364 53.312 59.6364C53.1775 59.6364 53.0431 59.6364 52.9086 59.6364C52.7742 59.6364 52.6397 59.6364 52.5052 59.4925C52.3708 59.4925 52.2363 59.2048 52.2363 59.2048V59.061C52.3708 58.9171 52.5052 58.9171 52.5052 58.9171C52.7742 58.9171 53.312 58.7732 53.312 58.7732H53.4464C53.4464 57.9101 53.4464 57.0469 53.4464 56.1838C53.4464 55.896 53.4464 55.6083 53.4464 55.4645C53.4464 54.6013 53.4464 53.5943 53.4464 52.7311C53.4464 52.1557 53.4464 51.7241 53.4464 51.1487C53.4464 50.5732 53.4464 49.9978 53.4464 49.4224C53.4464 48.7031 53.4464 47.9838 53.4464 47.2645C53.312 47.2645 53.1775 47.2645 53.0431 47.2645C52.9086 47.2645 52.7742 47.2645 52.6397 47.1206C52.5052 47.1206 52.3708 46.8329 52.3708 46.8329V46.689C52.5052 46.5452 52.6397 46.5452 52.6397 46.5452C52.9086 46.5452 53.5809 46.4013 53.7153 46.4013C53.8498 46.4013 54.1187 46.4013 54.3876 46.4013C54.5221 46.2574 54.6565 46.2574 54.6565 46.1136C54.791 45.9697 54.9255 45.9697 55.1944 45.9697C55.4633 45.9697 55.7322 46.1136 55.8666 46.4013C56.0011 46.689 56.1356 46.8329 56.27 46.9767C56.4045 47.2645 56.4045 47.5522 56.5389 47.8399C56.6734 48.1276 56.6734 48.4153 56.8078 48.5592C56.9423 48.8469 57.0768 49.1346 57.0768 49.4224C57.2112 49.7101 57.2112 49.9978 57.3457 50.2855C57.4801 50.5732 57.3457 50.861 57.6146 51.0048C57.8835 51.5803 58.1524 52.1557 58.2869 52.7311C58.2869 53.0189 58.4213 53.3066 58.5558 53.5943C58.8247 54.3136 58.8247 54.6013 58.8247 54.889C58.8247 55.1767 58.9591 55.4645 59.0936 55.7522C59.0936 55.896 59.2281 56.0399 59.3625 56.0399C59.3625 56.1838 59.3625 56.3276 59.497 56.4715C59.497 56.6153 59.6314 56.9031 59.6314 57.0469C59.6314 57.1908 59.7659 57.1908 59.7659 57.1908C59.7659 57.1908 59.9003 57.1908 59.9003 57.0469V56.9031C59.9003 56.6153 59.9003 56.1838 59.9003 55.896C59.9003 55.1767 59.9003 54.4574 59.9003 53.7381C59.9003 53.1627 59.7659 52.4434 59.7659 51.868C59.7659 51.4364 59.7659 51.0048 59.7659 50.4294C59.7659 50.1417 59.7659 49.8539 59.7659 49.5662C59.7659 49.1346 59.7659 48.7031 59.7659 48.2715C59.7659 48.1276 59.7659 47.8399 59.7659 47.696C59.6314 47.696 59.3625 47.696 59.228 47.696C59.0936 47.696 58.9591 47.696 58.8247 47.696C58.6902 47.696 58.5558 47.696 58.4213 47.5522C58.2869 47.5522 58.1524 47.2645 58.1524 47.2645V47.1206C58.2869 46.9767 58.4213 46.9767 58.4213 46.9767C58.6902 46.9767 59.3625 46.8329 59.497 46.8329C59.6314 46.8329 59.7659 46.8329 59.9003 46.8329C60.0348 46.689 60.1692 46.689 60.3037 46.689C60.4382 46.689 60.5726 46.689 60.5726 46.8329C61.1104 46.8329 61.3793 46.8329 61.6483 46.8329Z" fill="#3B2774"/>
<path d="M72.1357 53.7597C72.1357 53.8964 71.8503 54.0331 71.7076 54.1697C71.4221 54.3064 71.1367 54.3064 70.8512 54.3064C70.5658 54.3064 70.4231 54.3064 70.4231 54.5797C70.4231 54.7164 70.4231 55.1264 70.4231 55.2631C70.4231 55.3997 70.4231 55.8097 70.4231 55.9464C70.4231 56.0831 70.4231 56.2197 70.4231 56.3564C70.4231 56.9031 70.4231 57.4497 70.4231 57.5864C70.4231 57.9964 70.4231 58.2697 70.4231 58.6797C70.4231 58.9531 70.4231 59.4997 69.9949 59.4997C69.8522 59.4997 69.7095 59.4997 69.7095 59.3631C69.5667 59.2264 69.5667 59.0897 69.5667 59.0897C69.5667 58.9531 69.5667 58.8164 69.5667 58.6797C69.5667 58.5431 69.5667 58.4064 69.5667 58.1331C69.424 58.5431 69.1386 58.9531 68.8531 59.0897C68.2822 59.4997 67.8541 59.6364 67.2832 59.6364C66.855 59.6364 66.4269 59.6364 66.1414 59.4997C65.7132 59.3631 65.2851 59.0897 64.9996 58.8164C64.5715 58.4064 64.286 57.8597 64.0006 57.3131C63.7151 56.9031 63.7151 56.4931 63.5724 56.0831C63.5724 55.8097 63.4297 55.5364 63.4297 55.1264C63.4297 54.8531 63.4297 54.5797 63.4297 54.3064C63.4297 53.2131 63.7151 52.1197 64.0006 51.0264C64.1433 50.4797 64.286 49.9331 64.4287 49.3864C64.5715 48.8397 64.8569 48.2931 65.2851 47.7464C65.5705 47.3364 65.9987 46.9264 66.4268 46.5164C66.5696 46.3797 66.855 46.2431 66.9977 46.2431C67.2832 46.1064 67.5686 45.9697 67.8541 45.9697H67.9968C68.1395 45.9697 68.2822 45.9697 68.425 45.9697C68.7104 45.9697 68.9958 46.1064 69.1386 46.2431C69.2813 46.3797 69.424 46.5164 69.5667 46.6531C69.5667 46.5164 69.5667 46.3797 69.7095 46.2431C69.7095 46.1064 69.7095 46.1064 69.8522 46.1064L69.9949 45.9697L70.1376 46.1064C70.2803 46.2431 70.2803 46.3797 70.2803 46.5164C70.2803 46.6531 70.2803 47.0631 70.2803 47.3364C70.2803 47.8831 70.2803 48.4297 70.2803 48.5664C70.2803 48.9764 70.2803 49.2497 70.2803 49.6597C70.2803 49.9331 70.2803 50.4797 69.8522 50.4797C69.7095 50.4797 69.5667 50.4797 69.5667 50.3431C69.424 50.2064 69.424 50.0697 69.424 50.0697C69.424 49.9331 69.424 49.7964 69.424 49.7964C69.424 49.6597 69.424 49.5231 69.424 49.2497C69.424 49.1131 69.424 48.9764 69.424 48.8397C69.424 48.5664 69.2813 48.2931 69.2813 48.0197C69.2813 47.7464 69.1386 47.4731 68.9958 47.1997C68.8531 47.0631 68.5677 46.9264 68.425 46.9264C68.1395 46.9264 67.9968 47.0631 67.8541 47.3364C67.7113 47.6097 67.5686 47.7464 67.4259 48.0197C67.2832 48.2931 67.2832 48.5664 67.2832 48.8397C67.2832 49.1131 67.1405 49.3864 67.1405 49.6597C66.9977 49.9331 66.9977 50.2064 66.9977 50.6164C66.9977 50.8897 66.855 51.1631 66.855 51.4364C66.855 51.7097 66.7123 51.9831 66.7123 52.1197C66.7123 52.3931 66.7123 52.6664 66.5696 52.9397C66.5696 53.2131 66.5696 53.4864 66.4268 53.7597C66.4268 54.0331 66.4268 54.3064 66.4268 54.4431C66.4268 54.8531 66.4268 55.1264 66.4268 55.5364C66.4268 55.9464 66.5696 56.4931 66.7123 56.9031C66.7123 57.0397 66.855 57.3131 66.855 57.4497C66.855 57.7231 66.9977 57.8597 67.1405 58.1331C67.2832 58.4064 67.7113 58.8164 68.1395 58.8164C68.425 58.8164 68.7104 58.5431 68.8531 58.2697C69.1386 57.8597 69.2813 57.4497 69.424 57.0397C69.5667 56.6297 69.5667 56.2197 69.5667 55.8097C69.5667 55.5364 69.5667 55.1264 69.5667 54.8531V54.7164C69.5667 54.4431 69.5667 54.4431 69.2813 54.4431C68.9958 54.4431 68.7104 54.4431 68.425 54.4431C68.1395 54.4431 67.9968 54.4431 67.7113 54.3064C67.5686 54.3064 67.5686 54.1697 67.5686 54.1697C67.5686 54.1697 67.5686 54.0331 67.7113 54.0331C67.8541 53.8964 67.9968 53.8964 68.1395 53.7597C68.425 53.6231 68.7104 53.6231 68.9958 53.4864C69.2813 53.4864 69.5667 53.4864 69.8522 53.3497C70.1376 53.3497 70.2803 53.3497 70.5658 53.3497C70.8512 53.3497 71.4221 53.3497 71.7076 53.3497C71.8503 53.4864 72.1357 53.6231 72.1357 53.7597Z" fill="#3B2774"/>
<path d="M86.2402 58.6701C86.5136 58.6701 87.0602 58.6701 87.0602 58.9462C87.0602 59.0842 87.0602 59.2223 86.9236 59.2223C86.7869 59.3603 86.6502 59.3603 86.5136 59.3603C86.3769 59.3603 86.2402 59.3603 86.1035 59.3603C86.1035 59.3603 85.8302 59.3603 85.4202 59.3603C85.1468 59.4983 84.8735 59.6364 84.4635 59.6364C84.3268 59.6364 84.0535 59.6364 83.9168 59.4983C83.7801 59.4983 83.7801 59.3603 83.6434 59.3603C83.3701 59.3603 83.0967 59.3603 82.8234 59.3603C82.6867 59.3603 82.5501 59.3603 82.2767 59.3603C82.14 59.3603 81.8667 59.3603 81.73 59.2223C81.5933 59.2223 81.4567 58.9462 81.4567 58.9462C81.4567 58.9462 81.4567 58.8081 81.5933 58.8081C81.73 58.6701 81.8667 58.6701 82.0034 58.6701C82.4134 58.6701 82.9601 58.532 83.0967 58.532H83.2334C83.2334 58.394 83.2334 58.394 83.2334 58.2559C83.0967 57.7037 83.0967 57.1515 83.0967 56.4613C83.0967 55.7711 83.0967 55.0808 83.0967 54.3906C83.0967 53.8384 83.0967 53.1482 83.0967 52.596C83.0967 52.0438 83.0967 51.3536 83.0967 50.8014C83.0967 50.2492 83.0967 49.559 83.0967 49.2829C83.0967 49.1448 83.0967 49.1448 83.0967 49.1448C83.0967 49.1448 83.0967 49.1448 83.0967 49.2829C83.0967 49.559 82.9601 49.835 82.9601 49.9731C82.8234 50.5253 82.6867 51.0775 82.5501 51.6297C82.4134 52.1819 82.2767 52.734 82.2767 53.1482C82.2767 53.4243 82.14 53.7004 82.14 53.9765C82.14 54.2526 82.0034 54.5287 82.0034 54.8047C82.0034 55.0808 81.8667 55.3569 81.73 55.633C81.5933 55.7711 81.32 55.9091 81.0467 55.9091C80.6366 55.9091 80.2266 55.7711 79.9533 55.495C79.5433 55.0808 79.4066 54.5287 79.2699 54.1145C79.1332 53.5623 78.9966 53.0101 78.8599 52.4579C78.8599 52.3199 78.7232 51.9058 78.5866 51.3536C78.4499 50.8014 78.3132 50.2492 78.1765 49.697C78.0399 49.2829 78.0399 49.0068 77.9032 48.8687C77.9032 48.7307 77.9032 48.7307 77.9032 48.7307C77.9032 48.7307 77.9032 48.8687 77.7665 49.0068C77.7665 49.1448 77.7665 49.4209 77.7665 49.559C77.7665 49.835 77.7665 50.1111 77.7665 50.2492C77.7665 50.3872 77.7665 50.8014 77.7665 51.0775C77.7665 51.3536 77.7665 51.7677 77.7665 52.0438C77.7665 52.3199 77.7665 52.596 77.7665 52.8721C77.7665 53.1482 77.7665 53.2862 77.7665 53.5623C77.7665 53.7004 77.7665 53.9765 77.7665 54.1145C77.7665 54.2526 77.7665 54.3906 77.7665 54.5286C77.7665 54.8047 77.6298 55.0808 77.6298 55.495C77.4932 56.0472 77.4932 56.7374 77.3565 57.2896C77.3565 57.5657 77.3565 57.8418 77.3565 58.2559C77.3565 58.394 77.3565 58.394 77.3565 58.532C77.7665 58.532 78.1765 58.532 78.4499 58.532C78.7232 58.532 79.1332 58.532 79.1332 58.9462C79.1332 59.0842 78.9966 59.0842 78.9966 59.2223C78.9966 59.3603 78.8599 59.3603 78.7232 59.3603C78.5865 59.3603 78.4499 59.3603 78.3132 59.3603C78.1765 59.3603 77.2198 59.3603 76.9465 59.3603C76.6731 59.3603 75.9898 59.3603 75.7164 59.3603C75.5798 59.3603 75.4431 59.3603 75.3064 59.3603C75.1697 59.3603 75.0331 59.3603 74.8964 59.2223C74.7597 59.0842 74.623 58.9462 74.623 58.9462C74.623 58.9462 74.6231 58.8081 74.7597 58.8081C74.8964 58.6701 75.0331 58.6701 75.0331 58.6701C75.3064 58.6701 75.9898 58.532 75.9898 58.532C75.9898 58.532 76.1264 58.532 76.2631 58.532C76.2631 57.9798 76.3998 57.4276 76.3998 57.0135C76.3998 56.3233 76.5365 55.7711 76.5365 55.0808C76.5365 54.5287 76.5365 53.9765 76.6731 53.4243C76.6731 52.596 76.6731 51.9058 76.8098 51.0775C76.8098 50.6633 76.8098 50.2492 76.9465 49.835C76.9465 49.2829 77.0832 48.8687 77.2198 48.1785C77.2198 47.9024 77.2198 47.6263 77.3565 47.2122C77.3565 47.2122 77.3565 47.2121 77.3565 47.0741C77.2198 47.0741 77.0832 47.0741 76.9465 47.0741C76.8098 47.0741 76.6731 47.0741 76.3998 47.0741C76.1264 47.0741 75.9898 47.0741 75.8531 46.9361C75.7164 46.9361 75.5798 46.66 75.5798 46.66C75.5798 46.66 75.5798 46.5219 75.7164 46.5219C75.8531 46.3839 75.9898 46.3839 76.1264 46.3839C76.5365 46.3839 77.0832 46.2458 77.2198 46.2458C77.6298 46.2458 78.0399 46.2458 78.4499 46.2458H78.5866C78.7232 46.2458 78.9966 46.2458 79.1332 46.3839C79.4066 46.5219 79.6799 46.798 79.9533 47.3502C80.0899 47.9024 80.3633 48.4546 80.5 49.0068C80.5 49.2829 80.5 49.559 80.6366 49.697C80.7733 49.9731 80.7733 50.2492 80.91 50.5253C80.91 50.8014 80.91 51.0775 81.0467 51.2155C81.1833 51.4916 81.1833 51.6297 81.1833 51.9058C81.1833 52.0438 81.32 52.3199 81.4567 52.734C81.5933 53.0101 81.5933 53.2862 81.73 53.2862C81.8667 53.2862 81.8667 52.596 81.8667 52.4579C81.8667 52.1818 82.0034 51.9058 82.0034 51.4916C82.14 50.9394 82.2767 50.2492 82.4134 49.697C82.5501 49.0068 82.6867 48.4546 82.8234 47.7643C82.9601 47.2121 83.0967 46.798 83.5068 46.3839C83.7801 46.1078 84.0534 45.9697 84.4635 45.9697C84.6001 45.9697 84.7368 45.9697 84.8735 46.1078H86.2402C86.5136 46.1078 87.0602 46.1078 87.0602 46.3839C87.0602 46.5219 87.0602 46.5219 86.9236 46.66C86.7869 46.798 86.6502 46.798 86.5136 46.798C86.3769 46.798 86.2402 46.798 86.1035 46.798C85.9669 46.798 85.8302 46.798 85.5568 46.798V46.9361C85.5568 47.2122 85.6935 47.4882 85.6935 47.7643C85.6935 48.0404 85.6935 48.3165 85.8302 48.5926C85.8302 48.7307 85.9669 49.0068 85.9669 49.1448C85.9669 49.1448 85.9669 49.1448 85.9669 49.2829V49.4209C85.9669 49.559 85.9669 49.835 85.9669 49.9731C85.9669 50.2492 86.1035 50.5253 86.1035 50.8014C86.1035 50.9394 86.1035 50.9394 86.1035 51.0775C86.1035 51.2155 86.2402 51.3536 86.2402 51.4916C86.2402 51.6297 86.2402 51.6297 86.2402 51.7677C86.2402 51.9058 86.2402 52.0438 86.2402 52.3199C86.2402 52.4579 86.2402 52.596 86.2402 52.8721C86.2402 53.0101 86.2402 53.2862 86.3769 53.4243C86.3769 53.5623 86.3769 53.7004 86.3769 53.8384C86.3769 53.9765 86.3769 53.9765 86.3769 54.1145C86.3769 54.2526 86.3769 54.2526 86.3769 54.2526C86.3769 54.3906 86.5136 54.5286 86.5136 54.6667C86.5136 54.9428 86.5136 55.0808 86.6502 55.3569C86.6502 55.633 86.6502 55.9091 86.7869 56.3233V56.4613C86.7869 56.5994 86.7869 56.7374 86.7869 56.7374C86.7869 57.0135 86.7869 57.1515 86.7869 57.1515C86.7869 57.2896 86.7869 57.2896 86.7869 57.4276C86.7869 57.5657 86.7869 57.5657 86.7869 57.7037V57.8418C86.7869 57.9798 86.7869 58.1179 86.7869 58.2559V58.394C86.1035 58.6701 86.2402 58.6701 86.2402 58.6701Z" fill="#3B2774"/>
<path d="M98.254 59.0951C98.254 59.2305 98.1138 59.2305 98.1138 59.3658C97.9737 59.5011 97.8335 59.5011 97.8335 59.5011C97.6934 59.5011 97.4131 59.5011 97.273 59.5011C97.1329 59.5011 96.9927 59.5011 96.8526 59.5011H96.7124C96.5723 59.5011 96.5723 59.5011 96.4322 59.6364C96.292 59.6364 96.1519 59.6364 96.1519 59.6364C95.8716 59.6364 95.5913 59.6364 95.4512 59.5011C95.3111 59.5011 95.1709 59.5011 95.0308 59.5011C94.6104 59.5011 94.19 59.5011 94.0498 59.5011C93.9097 59.5011 93.6294 59.5011 93.4893 59.3658C93.3491 59.3658 93.209 59.2305 93.209 59.0951C93.209 58.8245 93.4893 58.8245 93.7696 58.8245C93.9097 58.8245 94.0498 58.8245 94.3301 58.8245C94.3301 58.6892 94.3301 58.5539 94.3301 58.4186C94.3301 58.2833 94.3301 58.0126 94.3301 57.8773C94.3301 57.742 94.3301 57.742 94.3301 57.6067C94.3301 57.4714 94.3301 57.3361 94.3301 57.3361C94.3301 57.2007 94.3301 57.2008 94.19 57.0654C94.19 56.7948 94.0498 56.6595 94.0498 56.3889C94.0498 56.2536 94.0498 55.9829 94.0498 55.8476C94.0498 55.577 94.0498 55.4417 93.9097 55.171C93.9097 55.0357 93.9097 55.0357 93.7696 55.0357H93.6294C93.3491 55.0357 93.209 55.0357 92.9287 55.0357C92.6485 55.0357 92.5083 55.0357 92.228 55.0357C92.0879 55.0357 91.8076 55.0357 91.6675 55.0357C91.5274 55.0357 91.3872 55.0357 91.2471 55.0357C91.107 55.0357 91.107 55.171 91.107 55.3064C91.107 55.4417 90.9668 55.7123 90.9668 55.9829C90.8267 56.3889 90.8267 56.6595 90.6865 57.0654C90.5464 57.4714 90.4063 58.1479 90.2661 58.5539C90.4063 58.5539 90.6865 58.5539 90.9668 58.5539C91.2471 58.5539 91.6675 58.5539 91.6675 58.8245C91.6675 58.9598 91.6675 58.9598 91.5274 59.0951C91.3872 59.2305 91.2471 59.2305 91.2471 59.2305C91.107 59.2305 90.9668 59.2305 90.8267 59.2305C90.6865 59.2305 90.5464 59.2305 90.4063 59.2305C90.126 59.2305 89.8457 59.2305 89.5654 59.2305C89.4253 59.2305 89.2852 59.2305 89.145 59.2305C89.0049 59.2305 88.7246 59.2305 88.5845 59.0951C88.4443 59.0951 88.3042 58.8245 88.3042 58.8245C88.3042 58.8245 88.3042 58.6892 88.4443 58.6892C88.5845 58.5539 88.7246 58.5539 88.8647 58.5539C89.145 58.5539 89.4253 58.5539 89.7056 58.4186C89.7056 58.1479 89.7056 58.0126 89.8457 57.8773C89.9859 57.4714 89.9858 57.0654 90.126 56.5242C90.126 56.2536 90.2661 55.8476 90.2661 55.4417C90.2661 55.3064 90.4063 55.0357 90.4063 54.9004C90.4063 54.7651 89.9859 54.7651 89.8457 54.6298C89.7056 54.6298 89.7056 54.4945 89.7056 54.3592C89.7056 54.2239 89.8457 54.0885 90.126 54.0885C90.2661 54.0885 90.5464 54.0885 90.6865 53.9532C90.8267 53.8179 90.8267 53.5473 90.8267 53.412C90.9668 53.006 91.107 52.6001 91.2471 52.1941C91.3872 51.7882 91.5274 51.3823 91.6675 50.841C91.8076 50.4351 91.8076 50.0291 91.9478 49.6232C92.0879 49.2173 92.0879 48.8113 92.228 48.4054C92.3682 47.9994 92.5083 47.5935 92.7886 47.1875L92.9287 46.7816C93.0689 46.6463 93.0689 46.3757 93.209 46.2404C93.4893 45.9697 94.0498 45.9697 94.3301 45.9697C94.6104 45.9697 94.7505 45.9697 95.0308 46.105C95.1709 46.2404 95.1709 46.3757 95.3111 46.511C95.4512 46.6463 95.5913 46.7816 95.5913 46.9169C95.5913 47.0522 95.5913 47.1875 95.7315 47.3229C95.8716 47.5935 95.8716 47.9994 95.8716 48.2701C96.0118 48.5407 96.1519 48.9466 96.1519 49.2172C96.1519 49.6232 96.292 50.0291 96.292 50.2998C96.4322 50.7057 96.4322 50.9763 96.4322 51.3823C96.4322 51.5176 96.4322 51.7882 96.5723 51.9235C96.5723 52.1941 96.7124 52.4648 96.7124 52.6001C96.7124 52.7354 96.7124 52.8707 96.8526 53.1413C96.8526 53.2767 96.9927 53.412 96.9927 53.5473C96.9927 53.5473 97.1329 53.5473 97.273 53.5473C97.4131 53.5473 97.4131 53.5473 97.5533 53.5473C97.6934 53.5473 97.9737 53.5473 98.1138 53.8179V53.9532C98.1138 53.9532 98.1138 54.0885 97.9737 54.0885C97.8335 54.2239 97.6934 54.3592 97.5533 54.3592C97.5533 54.3592 97.4131 54.3592 97.273 54.3592H97.1329C97.1329 54.3592 97.1329 54.3592 97.1329 54.4945C97.1329 54.4945 97.1329 54.6298 97.1329 54.7651C97.1329 54.9004 97.1329 54.9004 97.1329 55.0357V55.3064C97.1329 55.4417 97.1329 55.4417 97.1329 55.577C97.1329 55.7123 97.273 55.9829 97.273 56.1182C97.273 56.2536 97.4131 56.5242 97.4131 56.6595C97.4131 56.9301 97.5533 57.0654 97.5533 57.2008C97.5533 57.4714 97.5533 57.6067 97.6934 57.8773C97.6934 58.0126 97.6934 58.0126 97.6934 58.1479C97.8335 58.1479 97.9737 58.1479 98.254 58.1479C97.9737 58.8245 98.254 58.9598 98.254 59.0951ZM93.3491 53.9532C93.3491 53.8179 93.3491 53.6826 93.3491 53.5473C93.3491 53.2767 93.209 53.1413 93.209 52.8707C93.209 52.3295 93.209 51.6529 93.209 51.1116C93.209 50.841 93.209 50.5704 93.0689 50.2998C93.0689 50.0291 92.9287 49.7585 92.9287 49.3526C92.9287 49.2173 92.9287 48.9466 92.9287 48.5407C92.9287 48.2701 92.7886 48.1347 92.7886 48.1347C92.6485 48.1347 92.3682 48.4054 92.3682 48.5407C92.3682 48.8113 92.228 48.9466 92.228 49.2172C92.228 49.3526 92.228 49.4879 92.228 49.4879C92.228 49.6232 92.228 49.7585 92.228 49.7585C92.0879 50.0291 92.0879 50.2998 92.0879 50.4351C91.9478 50.9763 91.8076 51.3823 91.6675 51.7882C91.6675 52.0588 91.5274 52.1941 91.5274 52.4648C91.5274 52.7354 91.3872 53.006 91.3872 53.2767C91.3872 53.412 91.2471 53.6826 91.2471 53.8179C91.2471 53.8179 91.2471 53.8179 91.3872 53.8179C91.5274 53.8179 91.8076 53.8179 91.8076 53.8179C91.9478 53.8179 92.0879 53.8179 92.228 53.8179C92.3682 53.8179 92.5083 53.8179 92.6485 53.8179C92.7886 53.8179 92.9287 53.8179 93.209 53.8179C93.0689 54.2239 93.0689 54.2239 93.3491 53.9532C93.3491 54.0885 93.209 54.0885 93.3491 53.9532Z" fill="#3B2774"/>
<path d="M108.059 53.339C108.059 53.473 108.059 53.607 108.059 53.741C108.059 53.875 107.915 54.0089 107.915 54.2769C107.915 54.4109 107.915 54.6789 107.915 54.8129C107.915 54.9469 107.915 55.0808 107.771 55.2148C107.771 55.3488 107.771 55.4828 107.627 55.6168C107.483 55.7508 107.483 56.0187 107.483 56.1527C107.483 56.2867 107.338 56.5547 107.338 56.6887C107.338 56.8227 107.194 56.9567 107.05 57.0906C106.906 57.2246 106.906 57.3586 106.906 57.4926C106.762 57.6266 106.617 58.0286 106.473 58.0286C106.041 58.5645 105.608 58.8325 105.32 59.1004C105.175 59.2344 104.887 59.3684 104.599 59.3684C104.31 59.3684 104.022 59.5024 103.733 59.5024C103.445 59.5024 103.301 59.3684 103.157 59.3684C102.58 59.3684 102.724 59.3684 102.147 59.3684C102.003 59.5024 102.003 59.6364 101.859 59.6364C101.715 59.6364 101.57 59.6364 101.57 59.6364C101.426 59.6364 101.282 59.6364 101.282 59.6364C101.282 59.6364 101.138 59.6364 100.994 59.6364C100.849 59.6364 100.561 59.5024 100.561 59.5024C100.417 59.3684 100.273 59.3684 100.128 59.2344C100.128 59.2344 99.9843 59.2344 99.9843 59.1004C99.8401 59.1004 99.9843 59.1004 99.6959 59.1004C99.5517 59.1004 99.4075 59.1004 99.1191 59.1004C98.9749 59.1004 98.6865 59.1004 98.5423 58.9665C98.3981 58.9665 98.2539 58.6985 98.2539 58.6985C98.2539 58.5645 98.2539 58.5645 98.3981 58.4305C98.5423 58.2965 98.6865 58.2965 98.8307 58.2965C99.1191 58.2965 99.4075 58.2965 99.6959 58.1625C99.6959 58.0286 99.6959 57.7606 99.6959 57.6266C99.6959 56.8227 99.6959 55.8848 99.6959 55.0808C99.6959 54.8129 99.6959 53.875 99.8401 52.6691C99.8401 51.7312 99.8401 50.9272 99.8401 49.9893C99.8401 49.4534 99.8401 48.9174 99.8401 48.3815C99.8401 47.9795 99.8401 47.7116 99.8401 47.3096C99.8401 47.3096 99.8401 47.3096 99.6959 47.3096C99.5517 47.3096 99.4075 47.3096 99.1191 47.3096C98.9749 47.3096 98.6865 47.3096 98.5423 47.1756C98.3981 47.1756 98.2539 46.9076 98.2539 46.9076C98.2539 46.9076 98.2539 46.7736 98.3981 46.6397C98.5423 46.5057 98.6865 46.5057 98.8307 46.5057C99.2633 46.5057 99.6959 46.3717 99.8401 46.3717L99.9843 46.2377L100.273 46.1037C100.417 46.1037 100.561 45.9697 100.561 45.9697C100.705 45.9697 100.705 45.9697 100.849 45.9697C100.994 45.9697 101.138 45.9697 101.282 45.9697C101.57 45.9697 101.715 46.1037 101.859 46.3717C102.003 46.3717 102.147 46.3717 102.291 46.3717C102.724 46.3717 103.012 46.5057 103.733 46.5057C104.166 46.5057 104.454 46.6397 104.887 46.6397C105.031 46.6397 105.32 46.6397 105.464 46.7737C105.608 46.9076 105.752 47.0416 105.896 47.1756C106.041 47.3096 106.185 47.3096 106.329 47.4436C106.473 47.5776 106.473 47.7116 106.473 47.8455C106.617 47.9795 106.762 48.1135 107.05 48.2475C107.194 48.3815 107.194 48.6495 107.338 48.7835C107.627 49.1854 107.915 49.5874 108.059 49.9893C108.204 50.3913 108.204 50.6593 108.204 51.0612C108.204 51.3292 108.204 51.5972 108.204 51.8652C108.204 51.9991 108.204 52.2671 108.204 52.4011V52.5351C108.204 53.071 108.059 53.205 108.059 53.339ZM105.464 53.339C105.464 53.071 105.464 52.6691 105.464 52.2671C105.464 51.7312 105.32 51.3292 105.32 51.1952C105.175 50.3913 105.031 49.7214 104.887 49.0514C104.887 48.9174 104.887 48.5155 104.166 47.9795C104.022 47.8455 103.301 47.7116 102.868 47.7116C102.58 47.7116 102.436 47.7116 102.436 47.8455C102.436 47.9795 102.436 48.3815 102.436 48.9174C102.436 50.1233 102.436 51.7312 102.436 51.9991C102.436 52.1331 102.436 52.2671 102.436 52.4011C102.436 52.6691 102.436 52.937 102.436 53.205C102.436 53.607 102.436 53.875 102.436 54.2769C102.436 54.5449 102.436 54.9469 102.436 55.2148C102.436 55.6168 102.436 56.5547 102.436 56.9567C102.436 57.0906 102.436 57.2246 102.436 57.4926C102.436 57.6266 102.436 58.1625 102.436 58.4305C102.436 58.5645 102.436 58.5645 102.58 58.5645C102.724 58.5645 102.868 58.5645 102.868 58.5645C103.012 58.5645 103.012 58.5645 103.301 58.5645C103.445 58.5645 103.733 58.2965 103.878 58.2965L104.166 58.1625C104.31 58.0286 104.454 57.8946 104.454 57.7606C104.599 57.6266 104.743 57.3586 104.743 57.2246C104.887 56.8227 105.031 56.8227 105.175 56.0187C105.175 55.4828 105.32 55.0808 105.464 54.6789C105.464 54.1429 105.464 53.741 105.464 53.339Z" fill="#3B2774"/>
<path d="M116.762 58.3813L116.91 58.5207C116.91 58.6602 116.762 58.7997 116.615 58.9391C116.467 59.0786 116.319 59.0786 116.024 59.0786C115.582 59.0786 115.139 59.218 114.696 59.218C114.549 59.218 114.254 59.218 114.106 59.3575C113.958 59.3575 113.516 59.3575 113.221 59.3575C113.073 59.3575 113.073 59.3575 112.926 59.3575H112.63C112.63 59.4969 112.483 59.4969 112.335 59.6364C112.188 59.6364 112.04 59.6364 111.893 59.6364C111.745 59.6364 111.597 59.6364 111.45 59.6364C111.302 59.6364 111.155 59.6364 111.155 59.6364C111.007 59.6364 110.712 59.4969 110.712 59.4969C110.565 59.3575 110.417 59.3575 110.269 59.218C110.122 59.218 109.974 59.218 109.974 59.218C109.679 59.218 109.827 59.218 109.532 59.218C109.384 59.218 109.237 59.218 109.089 59.218C108.941 59.218 108.646 59.218 108.499 59.0786C108.351 59.0786 108.204 58.7997 108.204 58.6602C108.204 58.6602 108.204 58.5207 108.351 58.5207C108.499 58.3813 108.646 58.3813 108.794 58.3813C109.089 58.3813 109.384 58.2418 109.827 58.2418C109.827 57.9629 109.827 57.4051 109.827 56.9867C109.827 56.2895 109.827 55.5922 109.827 55.3133C109.827 55.1738 109.827 54.616 109.827 54.1976C109.827 53.7793 109.827 53.3609 109.827 52.9425C109.827 52.8031 109.827 52.6636 109.827 52.5241C109.827 52.2452 109.827 52.1058 109.827 51.8269C109.827 51.6874 109.827 51.4085 109.827 51.269C109.827 50.9901 109.827 50.8507 109.827 50.5718C109.827 50.1534 109.974 49.735 109.974 49.4561C109.974 49.0378 109.974 48.6194 109.974 48.201C109.974 47.9221 109.974 47.5037 109.974 47.2248C109.827 47.2248 109.974 47.2248 109.679 47.2248C109.532 47.2248 109.384 47.2248 109.237 47.2248C109.089 47.2248 108.794 47.2248 108.646 47.0854C108.499 47.0854 108.351 46.8065 108.351 46.667C108.351 46.667 108.351 46.5276 108.499 46.5276C108.646 46.3881 108.794 46.3881 108.941 46.3881C109.384 46.3881 109.974 46.2486 110.269 46.2486C110.269 46.1092 110.417 46.1092 110.417 46.1092C110.565 45.9697 110.712 45.9697 111.007 45.9697C111.155 45.9697 111.302 45.9697 111.45 45.9697H111.597C111.745 45.9697 111.745 45.9697 111.893 46.1092C112.04 46.1092 112.04 46.1092 112.188 46.2486C112.335 46.2486 112.63 46.3881 112.778 46.3881H112.926C113.073 46.3881 113.221 46.3881 113.368 46.3881C113.516 46.3881 114.254 46.3881 114.549 46.3881C114.696 46.3881 114.991 46.3881 115.139 46.3881C115.434 46.3881 115.582 46.3881 115.877 46.5276C116.024 46.5276 116.172 46.5275 116.319 46.667C116.467 46.5275 116.467 46.5276 116.467 46.5276C116.467 46.5276 116.615 46.5275 116.615 46.667C116.762 46.8065 116.762 46.9459 116.762 47.0854C116.762 47.6432 116.762 47.3643 116.762 47.7827C116.762 48.201 116.762 48.201 116.762 48.7588C116.762 49.0378 116.762 49.4561 116.467 49.4561C116.319 49.4561 116.172 49.4561 116.172 49.3167C116.024 49.1772 116.024 49.0378 116.024 49.0378C116.024 48.8983 116.024 48.7588 116.024 48.6194C116.024 48.4799 116.024 48.3405 116.024 48.201C116.024 48.0616 116.024 47.7827 116.024 47.6432C115.877 47.6432 115.582 47.6432 115.434 47.6432C115.139 47.6432 114.991 47.6432 114.696 47.6432C114.549 47.6432 114.254 47.6432 113.516 47.7827C113.368 47.7827 113.368 47.7827 113.221 47.7827C113.073 47.7827 113.073 47.7827 112.926 47.9221C112.926 47.9221 112.926 48.0616 112.926 48.201C112.926 48.3405 112.926 48.3405 112.926 48.4799C112.926 48.6194 112.926 48.8983 112.926 49.0378C112.926 49.1772 112.926 49.3167 112.926 49.4561C112.926 49.735 112.926 50.0139 112.926 50.1534C112.926 50.2929 112.926 50.5718 112.926 50.7112C112.926 50.8507 112.926 51.1296 112.926 51.269C112.926 51.4085 112.926 51.4085 112.926 51.548C112.926 51.548 112.926 51.6874 112.926 51.8269H113.073C113.221 51.8269 113.221 51.8269 113.368 51.8269C113.958 51.8269 114.254 51.8269 114.401 51.8269C114.549 51.8269 114.844 51.8269 114.991 51.8269V51.6874C114.991 51.548 114.991 51.4085 114.991 51.269C114.991 51.1296 114.991 50.8507 115.139 50.7112C115.139 50.5718 115.434 50.4323 115.434 50.4323C115.434 50.4323 115.582 50.4323 115.582 50.5718C115.729 50.7112 115.729 50.8507 115.729 50.9901C115.729 51.4085 115.729 51.6874 115.877 52.1058C115.877 52.5242 115.877 52.8031 115.877 53.2214C115.877 53.5003 115.877 53.9187 115.582 53.9187C115.434 53.9187 115.286 53.9187 115.286 53.7792C115.139 53.6398 115.139 53.5003 115.139 53.5003C115.139 53.3609 115.139 53.2214 115.139 53.082C115.139 52.9425 115.139 52.8031 115.139 52.6636C114.696 52.6636 114.106 52.6636 113.221 52.6636C113.073 52.6636 112.926 52.8031 112.926 52.9425C112.926 53.082 112.926 53.3609 112.926 53.5003C112.926 53.6398 112.926 53.6398 112.926 53.7792C112.926 53.9187 112.926 54.0582 112.926 54.0582C112.926 54.1976 112.926 54.3371 112.926 54.616C112.926 54.7554 112.926 54.8949 112.926 55.0344C112.926 55.3133 112.926 55.5922 112.926 55.8711C112.926 56.2895 112.926 56.7078 112.926 56.9867C112.926 57.1262 112.926 57.4051 113.073 57.5446C113.073 57.684 113.073 58.1024 113.221 58.1024C113.221 58.1024 113.368 58.1024 113.811 58.1024C114.106 58.1024 114.401 58.1024 114.549 58.1024C114.844 58.1024 115.139 58.1024 115.286 58.1024C115.582 58.1024 115.729 57.9629 116.024 57.9629C116.024 57.8235 116.024 57.5446 116.024 57.4051C116.024 57.2656 116.024 57.1262 116.024 56.9867C116.024 56.8473 116.024 56.7078 116.024 56.5684C116.024 56.4289 116.172 56.2895 116.172 56.2895C116.319 56.15 116.319 56.15 116.467 56.15C116.762 56.15 116.762 56.7078 116.762 56.8473C116.91 57.5446 116.762 57.8235 116.762 58.3813C116.762 58.3813 116.762 58.2418 116.762 58.3813Z" fill="#3B2774"/>
<path d="M129.07 59.0669C129.209 59.2093 129.347 59.2093 129.347 59.3517V59.494C129.209 59.6364 129.07 59.6364 128.794 59.6364C128.241 59.6364 127.55 59.2093 127.136 58.9246C126.721 58.4975 126.583 58.0704 126.307 57.6433C126.168 57.3586 126.03 57.2163 125.892 56.9315C125.754 56.6468 125.754 56.5044 125.616 56.2197C125.616 55.935 125.477 55.6503 125.339 55.5079C125.201 55.2232 125.201 54.9385 125.063 54.7961C124.925 54.6538 124.925 54.369 124.786 54.0843C124.648 53.7996 124.648 53.6572 124.372 53.5149C124.234 53.3725 124.095 53.3725 123.957 53.3725C123.819 53.3725 123.681 53.3725 123.543 53.3725C123.543 53.3725 123.543 53.3725 123.543 53.5149C123.543 53.6572 123.543 53.942 123.543 53.942C123.543 54.2267 123.543 54.5114 123.543 54.7961C123.543 55.2232 123.681 55.3656 123.681 55.7926C123.681 56.3621 123.543 56.7892 123.543 57.3586C123.543 57.501 123.543 57.6433 123.543 57.9281C123.543 58.0704 123.543 58.0704 123.543 58.2128C123.819 58.2128 124.095 58.2128 124.234 58.2128C124.51 58.2128 125.063 58.2128 125.063 58.6399C125.063 58.7822 125.063 58.9246 124.925 58.9246C124.786 59.0669 124.648 59.0669 124.51 59.0669C124.372 59.0669 124.234 59.0669 124.095 59.0669C123.957 59.0669 123.681 59.0669 123.266 59.0669C122.99 59.2093 122.714 59.3517 122.575 59.3517C122.437 59.3517 122.299 59.3517 122.161 59.3517C122.023 59.3517 122.023 59.3517 121.884 59.3517C121.746 59.3517 121.47 59.2093 121.332 59.0669C121.193 59.0669 120.917 59.0669 120.779 59.0669C120.641 59.0669 120.502 59.0669 120.226 59.0669C120.088 59.0669 119.812 58.9246 119.673 58.9246C119.535 58.9246 119.397 58.6399 119.397 58.6399C119.397 58.6399 119.397 58.4975 119.535 58.4975C119.673 58.3551 119.812 58.3551 119.95 58.3551C120.226 58.3551 120.641 58.2128 120.917 58.2128C120.917 58.0704 120.917 57.9281 120.917 57.7857C120.917 57.6433 120.917 56.6468 120.917 56.2197C120.917 55.7926 120.917 55.3656 120.917 54.9385C120.917 54.5114 120.917 53.942 120.917 53.5149C120.917 52.9454 120.917 52.376 120.917 51.9489C120.917 51.3794 120.917 50.81 120.917 50.2406C120.917 49.6711 120.917 49.5288 120.917 49.1017C120.917 48.8169 120.917 48.6746 120.917 48.3899C120.917 48.1051 120.917 47.8204 120.917 47.6781C120.917 47.5357 120.917 47.3933 120.917 47.251C120.917 47.251 120.917 47.251 120.779 47.251C120.641 47.251 120.502 47.251 120.226 47.251C120.088 47.251 119.812 47.251 119.673 47.1086C119.535 47.1086 119.397 46.8239 119.397 46.8239C119.397 46.8239 119.397 46.6815 119.535 46.6815C119.673 46.5392 119.812 46.5392 119.95 46.5392C120.364 46.5392 120.641 46.3968 120.917 46.3968C120.917 46.3968 120.917 46.2544 121.055 46.2544C121.193 46.2544 121.193 46.1121 121.47 46.1121C121.608 46.1121 121.746 45.9697 121.746 45.9697H122.023C122.161 45.9697 122.437 45.9697 122.575 46.1121C122.852 46.2545 122.99 46.2545 122.99 46.3968C123.266 46.3968 123.405 46.3968 123.681 46.3968C123.957 46.3968 124.095 46.3968 124.51 46.3968C124.648 46.3968 124.786 46.3968 124.925 46.3968C125.201 46.3968 125.477 46.5392 125.892 46.6815C126.03 46.6815 126.168 46.8239 126.445 46.9663C126.583 46.9663 126.721 47.1086 126.997 47.251C127.274 47.3933 127.412 47.5357 127.412 47.6781C127.55 47.9628 127.827 48.1051 127.827 48.2475C127.965 48.5322 127.965 48.8169 127.965 49.1017C127.965 49.3864 128.103 49.5288 128.103 49.5288V49.6711C128.103 49.8135 128.103 49.9558 128.103 49.9558C128.103 50.0982 128.103 50.2406 128.103 50.3829C128.103 50.5253 128.103 50.6676 127.965 50.9524C127.965 51.2371 127.827 51.3794 127.688 51.6642C127.688 51.8065 127.55 51.8065 127.55 51.9489C127.55 52.0913 127.55 52.0913 127.412 52.2336C127.274 52.376 127.136 52.5183 126.997 52.6607C126.859 52.6607 126.859 52.6607 126.721 52.8031C126.583 52.9454 126.583 52.9454 126.445 53.0878C126.307 53.2301 126.168 53.3725 126.03 53.5149C125.892 53.6572 125.754 53.6572 125.754 53.7996C125.754 53.9419 126.168 54.2267 126.307 54.369C126.445 54.6538 126.583 54.9385 126.721 55.2232C126.859 55.5079 126.859 55.7926 126.997 56.0774C127.136 56.5044 127.274 56.7892 127.274 57.2163C127.412 57.6433 127.55 57.9281 127.688 58.3551C127.827 58.6399 127.827 58.7822 127.965 58.9246C128.656 58.7822 128.794 58.9246 129.07 59.0669ZM126.168 48.6746C126.168 48.6746 126.168 48.5322 126.168 48.3899C126.168 48.1051 126.03 47.8204 125.754 47.5357C125.616 47.3933 125.616 47.3933 125.477 47.251C125.339 47.1086 125.201 47.1086 125.063 47.1086C124.786 46.9663 124.51 46.9663 124.234 46.9663H123.681C123.681 47.251 123.681 47.6781 123.681 48.1051C123.681 48.6746 123.819 49.3864 123.819 50.0982C123.819 50.9524 123.819 51.5218 123.819 51.6642C123.819 51.9489 123.819 52.0913 123.819 52.376V52.5183C123.819 52.6607 123.819 52.6607 123.957 52.6607C123.957 52.6607 124.095 52.6607 124.234 52.6607C124.372 52.6607 124.372 52.6607 124.51 52.6607C124.786 52.6607 125.201 52.5183 125.339 52.376C125.477 52.2336 125.616 52.0913 125.616 51.8065C125.616 51.6642 125.754 51.3794 125.754 51.2371C125.892 50.9524 125.892 50.81 125.892 50.5253C125.892 50.2406 125.892 50.2406 125.892 49.9558C125.892 49.5288 125.892 49.6711 125.892 49.3864C126.168 49.1017 126.168 49.1017 126.168 48.6746Z" fill="#3B2774"/>
<path d="M134.8 58.9246C135.055 58.9246 135.565 58.9246 135.565 59.2093C135.565 59.3517 135.565 59.3517 135.438 59.494C135.31 59.6364 135.183 59.6364 135.055 59.6364C134.927 59.6364 134.8 59.6364 134.672 59.6364C134.672 59.6364 134.29 59.6364 133.907 59.6364C133.397 59.6364 132.886 59.6364 132.886 59.6364C132.631 59.6364 132.121 59.6364 131.866 59.6364C131.738 59.6364 131.611 59.6364 131.356 59.6364C131.228 59.6364 130.973 59.6364 130.845 59.494C130.718 59.494 130.59 59.2093 130.59 59.2093C130.59 59.2093 130.59 59.0669 130.718 59.0669C130.845 58.9246 130.973 58.9246 131.101 58.9246C131.483 58.9246 131.866 58.7822 131.994 58.7822C131.994 58.7822 132.121 58.7822 132.249 58.7822C132.121 58.6399 131.994 58.4975 131.994 58.3551C131.994 58.2128 131.994 58.2128 131.994 58.0704V57.9281V57.7857C131.994 57.6433 131.994 57.3586 131.994 57.2163C131.994 57.0739 131.994 57.0739 131.994 56.9315C131.994 55.935 131.994 54.9385 131.994 53.7996C131.994 53.2301 131.994 52.6607 131.994 52.2336C131.994 51.8065 131.994 51.2371 131.994 50.81C131.994 50.5253 131.994 50.2406 131.994 50.0982V49.1017C131.994 48.6746 131.994 48.2475 131.994 47.6781V47.5357H131.866C131.738 47.5357 131.611 47.5357 131.356 47.5357C131.228 47.5357 130.973 47.5357 130.845 47.3933C130.718 47.3933 130.59 47.1086 130.59 47.1086V46.9663C130.718 46.8239 130.845 46.8239 130.973 46.8239C131.356 46.8239 131.738 46.6815 131.866 46.6815V46.5392C131.866 46.3968 131.866 46.3968 131.866 46.2544L132.121 46.1121C132.249 46.1121 132.376 45.9697 132.376 45.9697C132.504 45.9697 132.504 45.9697 132.631 45.9697C132.759 45.9697 132.886 45.9697 133.014 45.9697C133.269 46.1121 133.524 46.2544 133.652 46.5392C134.034 46.5392 134.417 46.5392 134.545 46.5392C134.8 46.5392 135.31 46.5392 135.31 46.8239C135.31 46.9663 135.31 46.9663 135.183 47.1086C135.31 47.3933 135.183 47.5357 135.055 47.5357C134.927 47.5357 134.8 47.5357 134.672 47.5357C134.672 47.5357 134.417 47.5357 134.162 47.5357C134.162 47.8204 134.29 48.1051 134.29 48.2475C134.29 48.5322 134.29 48.8169 134.29 48.9593C134.29 49.244 134.29 49.3864 134.29 49.6711C134.29 49.8135 134.29 49.9558 134.29 50.0982C134.29 50.2406 134.29 50.2406 134.29 50.3829C134.417 50.9524 134.29 51.3794 134.417 51.9489C134.417 52.5183 134.417 53.0878 134.417 53.6572C134.417 54.0843 134.417 54.6538 134.417 55.0808C134.417 55.6503 134.545 56.0774 134.545 56.6468C134.545 56.9315 134.545 57.2163 134.545 57.3586C134.545 57.6433 134.545 57.9281 134.545 58.2128C134.545 58.4975 134.545 58.6399 134.417 58.9246C134.545 58.9246 134.672 58.9246 134.8 58.9246Z" fill="#3B2774"/>
<path d="M144.271 53.7597C144.271 53.8964 144.027 54.0331 143.904 54.1697C143.66 54.3064 143.415 54.3064 143.17 54.3064C142.926 54.3064 142.803 54.3064 142.803 54.5797C142.803 54.7164 142.803 55.1264 142.803 55.2631C142.803 55.3997 142.803 55.8097 142.803 55.9464C142.803 56.0831 142.803 56.2197 142.803 56.3564C142.803 56.9031 142.803 57.4497 142.803 57.5864C142.803 57.9964 142.803 58.2697 142.803 58.6797C142.803 58.9531 142.803 59.4997 142.436 59.4997C142.314 59.4997 142.192 59.4997 142.192 59.3631C142.069 59.2264 142.069 59.0897 142.069 59.0897C142.069 58.9531 142.069 58.8164 142.069 58.6797C142.069 58.5431 142.069 58.4064 142.069 58.1331C141.947 58.5431 141.702 58.9531 141.458 59.0897C140.968 59.4997 140.601 59.6364 140.112 59.6364C139.745 59.6364 139.378 59.6364 139.133 59.4997C138.766 59.3631 138.399 59.0897 138.155 58.8164C137.788 58.4064 137.543 57.8597 137.298 57.3131C137.054 56.9031 137.054 56.4931 136.931 56.0831C136.931 55.8097 136.809 55.5364 136.809 55.1264C136.809 54.8531 136.809 54.5797 136.809 54.3064C136.809 53.2131 137.054 52.1197 137.298 51.0264C137.421 50.4797 137.543 49.9331 137.665 49.3864C137.788 48.8397 138.032 48.2931 138.399 47.7464C138.644 47.3364 139.011 46.9264 139.378 46.5164C139.5 46.3797 139.745 46.2431 139.867 46.2431C140.112 46.1064 140.357 45.9697 140.601 45.9697H140.724C140.846 45.9697 140.968 45.9697 141.091 45.9697C141.335 45.9697 141.58 46.1064 141.702 46.2431C141.825 46.3797 141.947 46.5164 142.069 46.6531C142.069 46.5164 142.069 46.3797 142.192 46.2431C142.192 46.1064 142.192 46.1064 142.314 46.1064L142.436 45.9697C142.559 45.9697 142.559 46.1064 142.559 46.1064C142.681 46.2431 142.681 46.3797 142.681 46.5164C142.681 46.6531 142.681 47.0631 142.681 47.3364C142.681 47.8831 142.681 48.4297 142.681 48.5664C142.681 48.9764 142.681 49.2497 142.681 49.6597C142.681 49.9331 142.681 50.4797 142.314 50.4797C142.192 50.4797 142.069 50.4797 142.069 50.3431C141.947 50.2064 141.947 50.0697 141.947 50.0697C141.947 49.9331 141.947 49.7964 141.947 49.7964C141.947 49.6597 141.947 49.5231 141.947 49.2497C141.947 49.1131 141.947 48.9764 141.947 48.8397C141.947 48.5664 141.825 48.2931 141.825 48.0197C141.825 47.7464 141.702 47.4731 141.58 47.1997C141.458 47.0631 141.213 46.9264 141.091 46.9264C140.846 46.9264 140.724 47.0631 140.601 47.3364C140.479 47.6097 140.357 47.7464 140.234 48.0197C140.112 48.2931 140.112 48.5664 140.112 48.8397C140.112 49.1131 139.99 49.3864 139.99 49.6597C139.867 49.9331 139.867 50.2064 139.867 50.6164C139.867 50.8897 139.745 51.1631 139.745 51.4364C139.745 51.7097 139.623 51.9831 139.623 52.1197C139.623 52.3931 139.623 52.6664 139.5 52.9397C139.5 53.2131 139.5 53.4864 139.378 53.7597C139.378 54.0331 139.378 54.3064 139.378 54.4431C139.378 54.8531 139.378 55.1264 139.378 55.5364C139.378 55.9464 139.5 56.4931 139.623 56.9031C139.623 57.0397 139.745 57.3131 139.745 57.4497C139.867 57.7231 139.867 57.8597 139.99 58.1331C140.112 58.4064 140.479 58.8164 140.846 58.8164C141.091 58.8164 141.335 58.5431 141.458 58.2697C141.702 57.8597 141.825 57.4497 141.947 57.0397C142.069 56.6297 142.069 56.2197 142.069 55.8097C142.069 55.5364 142.069 55.1264 142.069 54.8531V54.7164C142.069 54.4431 142.069 54.4431 141.825 54.4431C141.58 54.4431 141.335 54.4431 141.091 54.4431C140.846 54.4431 140.724 54.4431 140.479 54.3064C140.357 54.3064 140.357 54.1697 140.357 54.1697C140.357 54.1697 140.357 54.0331 140.479 54.0331C140.601 53.8964 140.724 53.8964 140.846 53.7597C141.091 53.6231 141.335 53.6231 141.58 53.4864C141.825 53.4864 142.069 53.4864 142.314 53.3497C142.559 53.3497 142.681 53.3497 142.926 53.3497C143.17 53.3497 143.66 53.3497 143.904 53.3497C144.027 53.4864 144.271 53.6231 144.271 53.7597Z" fill="#3B2774"/>
<path d="M154.593 58.6399C154.883 58.6399 155.465 58.6399 155.465 58.9246C155.465 59.0669 155.465 59.2093 155.32 59.2093C155.174 59.3517 155.029 59.3517 154.883 59.3517C154.738 59.3517 154.593 59.3517 154.447 59.3517C154.157 59.3517 152.267 59.3517 151.976 59.3517C151.685 59.3517 151.831 59.3517 151.54 59.3517C151.395 59.3517 151.249 59.3517 150.958 59.3517C150.813 59.3517 150.522 59.3517 150.377 59.2093C150.232 59.2093 150.086 58.9246 150.086 58.9246C150.086 58.9246 150.086 58.7822 150.232 58.7822C150.377 58.6399 150.522 58.6399 150.668 58.6399C150.959 58.6399 151.395 58.4975 151.54 58.4975C151.395 58.3551 151.249 58.2128 151.249 57.9281C151.249 57.501 151.249 56.9315 151.249 56.5044C151.249 56.0774 151.249 55.5079 151.249 55.0808C151.249 54.7961 151.249 54.5114 151.249 54.2267C151.249 53.942 151.249 53.6572 151.249 53.2301C151.249 53.0878 151.249 52.9454 151.249 52.8031C151.249 52.6607 151.249 52.6607 151.249 52.5183H151.104C150.813 52.5183 150.522 52.6607 150.377 52.6607C150.232 52.6607 149.941 52.6607 149.359 52.6607C149.069 52.6607 148.923 52.6607 148.778 52.6607C148.778 52.6607 148.633 52.6607 148.633 52.8031C148.633 52.9454 148.633 53.0878 148.633 53.2301C148.633 53.3725 148.633 53.5149 148.633 53.7996C148.633 53.9419 148.633 54.0843 148.633 54.2267C148.633 54.5114 148.633 54.6538 148.633 54.9385C148.633 54.9385 148.633 54.9385 148.633 55.0808C148.633 55.3656 148.633 55.5079 148.633 55.7926C148.633 56.0774 148.633 56.2197 148.633 56.5044C148.633 56.7892 148.633 56.9315 148.633 57.2163C148.633 57.501 148.633 57.7857 148.633 58.2128C148.633 58.3551 148.633 58.4975 148.633 58.6399C148.923 58.6399 149.359 58.6399 149.359 58.9246C149.359 59.0669 149.359 59.2093 149.214 59.2093C149.069 59.3517 148.923 59.3517 148.778 59.3517C148.633 59.3517 148.487 59.3517 148.342 59.3517C148.196 59.3517 148.196 59.3517 148.051 59.494C147.906 59.494 148.051 59.6364 147.906 59.6364C147.906 59.6364 147.76 59.6364 147.615 59.6364C147.324 59.6364 147.034 59.494 146.888 59.494L146.743 59.3517C146.452 59.3517 146.161 59.3517 146.161 59.3517C145.871 59.3517 146.016 59.3517 145.725 59.3517C145.58 59.3517 145.434 59.3517 145.144 59.3517C144.998 59.3517 144.708 59.3517 144.562 59.2093C144.417 59.2093 144.271 58.9246 144.271 58.9246C144.271 58.9246 144.271 58.7822 144.417 58.7822C144.562 58.6399 144.708 58.6399 144.853 58.6399C145.144 58.6399 145.58 58.4975 145.871 58.4975V58.3551C145.871 58.2128 145.871 58.0704 145.871 58.0704C145.871 57.7857 145.871 57.6433 145.871 57.3586C145.871 57.0739 145.871 56.7892 145.871 56.5044V55.7926C145.871 55.3656 145.871 54.9385 145.871 54.369C145.871 54.0843 145.871 53.7996 145.871 53.5149C145.871 53.3725 145.871 53.3725 145.871 53.2301C145.871 53.0878 145.871 52.9454 145.871 52.9454C145.871 52.8031 145.871 52.8031 145.725 52.8031C145.725 52.8031 145.434 52.8031 145.144 52.8031C144.853 52.8031 144.562 52.6607 144.562 52.5183C144.562 52.5183 144.562 52.376 144.708 52.376C144.853 52.2336 144.998 52.2336 144.998 52.2336C145.144 52.2336 145.289 52.2336 145.434 52.2336C145.58 52.2336 145.58 52.2336 145.725 52.0913V51.9489C145.725 51.3794 145.725 50.9524 145.725 50.3829C145.725 49.5288 145.725 48.5322 145.871 47.6781C145.871 47.5357 145.871 47.3933 145.871 47.251C145.725 47.251 145.725 47.251 145.58 47.251H145.434C145.289 47.251 145.289 47.251 145.144 47.251C144.998 47.251 144.708 47.251 144.562 47.1086C144.417 47.1086 144.271 46.8239 144.271 46.8239C144.271 46.8239 144.271 46.6815 144.417 46.6815C144.562 46.5392 144.708 46.5392 144.853 46.5392C145.289 46.5392 145.871 46.3968 146.016 46.3968H146.161C146.307 46.1121 146.452 45.9697 147.034 45.9697C147.324 45.9697 147.615 46.1121 147.906 46.3968C148.196 46.3968 148.342 46.3968 148.487 46.3968C148.778 46.3968 149.359 46.3968 149.359 46.6815C149.359 46.8239 149.214 46.9663 149.069 46.9663C148.923 47.1086 148.778 47.1086 148.633 47.1086C148.487 47.1086 148.342 47.1086 148.196 47.1086H148.051C148.051 47.1086 148.051 47.1086 148.051 47.251C148.196 47.5357 148.196 47.9628 148.196 48.2475C148.196 48.5322 148.196 48.9593 148.342 49.244C148.342 49.5288 148.487 49.8135 148.487 50.2406C148.487 50.3829 148.487 50.5253 148.487 50.5253V50.6676C148.487 50.81 148.487 50.9524 148.487 51.2371C148.487 51.3794 148.633 51.3794 148.633 51.5218V51.6642C148.633 51.8065 148.633 51.8065 148.778 51.8065C149.069 51.8065 149.941 51.6642 150.086 51.6642C150.232 51.6642 150.522 51.6642 150.668 51.6642C150.813 51.6642 150.958 51.6642 151.104 51.6642C151.249 51.6642 151.395 51.6642 151.395 51.3795C151.395 51.2371 151.395 50.9524 151.395 50.81C151.395 50.3829 151.395 50.0982 151.395 49.6711C151.395 49.6711 151.395 49.244 151.395 48.8169C151.395 48.5322 151.395 48.1051 151.395 47.8204C151.395 47.6781 151.395 47.3933 151.395 47.251C151.395 47.1086 151.395 46.9663 151.395 46.9663C151.249 46.9663 151.104 46.9663 151.104 46.9663C150.958 46.9663 150.668 46.9663 150.522 46.8239C150.377 46.8239 150.232 46.5392 150.232 46.5392C150.232 46.5392 150.232 46.3968 150.377 46.3968C150.522 46.2545 150.668 46.2544 150.813 46.2544C151.104 46.2544 151.395 46.2544 151.54 46.2544L151.685 46.1121C151.831 46.1121 152.121 46.1121 152.121 46.1121C152.121 46.1121 152.121 46.1121 152.267 46.1121C152.412 46.1121 152.558 46.1121 152.703 46.1121C152.848 46.1121 152.848 46.1121 152.848 46.2544C153.43 46.2544 154.011 46.2544 154.302 46.2544C154.593 46.2544 155.029 46.2545 155.029 46.5392C155.029 46.6815 155.029 46.8239 154.883 46.8239C154.738 46.9663 154.593 46.9663 154.447 46.9663C154.302 46.9663 154.157 46.9663 154.011 46.9663C154.011 46.9663 153.575 46.9663 153.139 46.9663C153.139 47.1086 153.284 47.251 153.284 47.5357C153.284 47.8204 153.43 48.2475 153.575 48.5322C153.575 48.817 153.575 49.1017 153.721 49.3864C153.866 49.6711 153.866 49.9558 153.866 50.2406C153.866 50.5253 153.866 50.6676 153.866 50.9524C153.866 51.0947 153.866 51.2371 153.866 51.3795C153.866 51.3795 153.866 51.3794 153.866 51.5218C153.866 51.6642 154.011 51.6642 154.011 51.6642C154.011 51.6642 154.157 51.6642 154.302 51.6642C154.447 51.6642 154.738 51.6642 154.738 51.8065V51.9489C154.738 52.0913 154.593 52.376 154.302 52.376C154.157 52.376 154.011 52.376 154.011 52.5183C153.866 52.5183 153.866 52.5183 153.866 52.6607C153.866 52.6607 153.866 52.8031 153.866 52.9454C153.866 52.9454 153.866 52.9454 153.866 53.0878C153.866 53.2301 153.866 53.3725 153.866 53.6572C153.866 54.0843 153.866 54.5114 153.866 55.0808C153.866 55.5079 154.011 56.0774 154.011 56.5044C154.011 56.7892 154.011 56.9315 154.011 57.2163C154.011 57.6433 153.866 58.0704 153.866 58.3551L153.721 58.4975C153.721 58.6399 153.721 58.6399 153.721 58.7822V58.9246C154.302 58.6399 154.447 58.6399 154.593 58.6399Z" fill="#3B2774"/>
<path d="M164.03 49.5662C164.03 49.8278 164.03 50.2201 163.75 50.2201C163.609 50.2201 163.469 50.2201 163.469 50.0894C163.328 49.9586 163.328 49.9586 163.328 49.8278C163.328 49.697 163.328 49.5662 163.328 49.4354C163.328 49.3047 163.328 48.6508 163.328 48.52C163.328 48.3892 163.328 48.2584 163.328 48.1276C163.188 48.1276 162.907 48.1276 162.767 48.1276C162.626 48.1276 162.486 48.1276 162.205 48.1276C162.065 48.1276 161.784 48.1276 161.643 48.1276H161.503C161.362 48.1276 161.222 48.1276 161.222 48.2584V48.3892C161.222 48.52 161.222 48.9123 161.222 49.0431C161.222 49.1739 161.222 49.4354 161.222 49.5662C161.222 49.697 161.222 49.8278 161.222 50.0894C161.222 50.2201 161.362 50.4817 161.222 50.6125C161.222 50.7433 161.222 51.0048 161.222 51.1356C161.222 51.5279 161.222 51.7895 161.222 52.1819C161.222 52.3126 161.222 52.4434 161.222 52.705C161.222 52.8358 161.222 52.8358 161.222 52.9665C161.222 53.0973 161.222 53.2281 161.222 53.3589C161.222 53.7512 161.222 53.882 161.222 54.2744C161.222 54.6667 161.222 54.9283 161.222 55.3206C161.222 55.4514 161.222 55.5822 161.222 55.8437C161.222 55.9745 161.222 56.2361 161.222 56.3669C161.222 56.7592 161.222 57.0208 161.222 57.4131C161.222 57.6747 161.222 58.1978 161.222 58.4594V58.5901C161.503 58.5901 161.643 58.5901 161.784 58.5901C162.065 58.5901 162.626 58.7209 162.626 58.9825C162.626 59.1133 162.626 59.2441 162.486 59.2441C162.345 59.3748 162.205 59.3748 162.065 59.3748C161.924 59.3748 161.784 59.3748 161.643 59.3748C161.643 59.3748 161.362 59.3748 160.941 59.3748C160.941 59.3748 160.801 59.3748 160.801 59.5056C160.66 59.6364 160.52 59.6364 160.38 59.6364C160.239 59.6364 160.099 59.6364 159.958 59.6364C159.677 59.6364 159.537 59.5056 159.397 59.5056C159.397 59.5056 159.256 59.5056 159.256 59.3748C158.975 59.3748 158.695 59.3748 158.414 59.3748C158.273 59.3748 158.133 59.3748 157.852 59.3748C157.571 59.3748 157.431 59.3748 157.29 59.2441C157.15 59.2441 157.009 58.9825 157.009 58.8517C157.009 58.8517 157.009 58.7209 157.15 58.7209C157.29 58.5901 157.431 58.5901 157.571 58.5901C157.852 58.5901 158.273 58.5901 158.414 58.4594C158.414 58.3286 158.414 58.067 158.414 57.9362C158.414 57.6747 158.414 57.2823 158.414 56.89C158.414 56.4976 158.414 56.2361 158.414 55.8437C158.414 55.4514 158.414 55.059 158.414 54.6667C158.414 54.4051 158.414 54.1436 158.414 53.7512C158.414 53.6205 158.414 53.4897 158.414 53.2281C158.414 53.0973 158.414 52.9665 158.414 52.705C158.414 52.3126 158.414 52.0511 158.414 51.6587C158.414 51.2664 158.414 51.0048 158.414 50.6125C158.414 50.3509 158.414 49.9586 158.414 49.697C158.414 49.3047 158.414 48.7815 158.414 48.3892C158.414 48.2584 158.414 48.2584 158.414 48.1276C158.414 47.9968 158.273 47.9968 158.273 47.9968C158.133 47.9968 157.431 47.9968 157.431 47.9968C157.15 47.9968 156.729 47.9968 156.448 47.9968H156.307C156.307 48.3892 156.307 49.0431 156.307 49.4354C156.307 49.697 156.307 50.0894 156.027 50.0894C155.886 50.0894 155.746 50.0893 155.746 49.9586C155.605 49.8278 155.605 49.8278 155.605 49.697C155.605 49.5662 155.605 49.4354 155.605 49.3047C155.605 49.1739 155.605 48.6508 155.605 48.52C155.605 48.2584 155.605 48.1276 155.605 47.8661C155.605 47.7353 155.465 47.7353 155.465 47.6045C155.465 47.4737 155.465 47.4737 155.605 47.4737C155.746 47.3429 155.886 47.3429 156.167 47.3429C156.307 47.3429 156.448 47.3429 156.588 47.3429C157.009 47.3429 157.29 47.3429 157.712 47.3429C157.852 47.3429 158.133 47.3429 158.273 47.3429C158.414 47.3429 158.414 47.3429 158.554 47.3429C158.695 47.3429 158.694 47.3429 158.694 47.3429C158.835 47.3429 158.975 47.2122 159.116 47.2122C159.256 47.2122 159.397 47.2122 159.537 47.2122C159.818 47.2122 159.958 47.2122 160.239 47.2122C160.38 47.2122 160.38 47.2122 160.52 47.3429C160.66 47.3429 160.66 47.4737 160.801 47.4737H160.941C161.082 47.4737 161.082 47.4737 161.222 47.4737C161.362 47.4737 161.643 47.4737 161.784 47.4737C162.205 47.4737 162.767 47.4737 163.188 47.4737C163.469 47.4737 163.75 47.4737 163.89 47.6045C164.03 47.7353 164.171 47.8661 164.171 47.9968C164.171 48.1276 164.171 48.1276 164.03 48.2584C164.03 48.2584 164.03 48.2584 164.03 48.52C164.03 48.6508 164.03 49.1739 164.03 49.5662Z" fill="#3B2774"/>
</svg>
