<svg width="131" height="64" viewBox="0 0 131 64" fill="none" xmlns="http://www.w3.org/2000/svg">
<g clip-path="url(#clip0_171_1520)">
<path d="M60.7415 24.4289C61.534 24.4956 64.5057 24.2287 65.1661 27.2312C68.0058 24.4956 67.4114 20.8926 65.4303 19.4247C62.0623 17.0227 58.4302 19.2245 58.1 21.6933C57.9019 23.2946 58.8264 24.2287 60.7415 24.4289ZM130.28 20.4923C128.431 20.4255 125.657 23.5615 123.346 23.5615C121.827 23.5615 121.761 22.4272 122.619 20.4923C125.921 13.353 121.893 13.5531 121.034 14.2204C121.034 14.2204 123.94 9.08275 118.855 9.08275C112.582 9.08275 107.034 14.4205 104.129 22.2938C103.072 24.9626 100.761 30.7008 98.2513 31.4347C95.8739 32.1019 95.9399 28.966 94.421 28.4322C104.393 21.6265 104.525 16.1553 102.94 14.2871C101.487 12.619 96.7984 12.152 90.921 18.2237C92.3738 12.8192 96.4022 9.48309 97.3928 4.01186C97.9211 0.809192 95.5437 -2.52692 91.1191 2.81086C88.0814 6.41386 86.5625 13.0194 83.6568 21.4931C81.9398 26.6307 78.4398 35.8384 75.402 35.8384C74.0813 35.8384 73.685 34.6374 74.0813 31.3013C74.8737 24.7625 80.0907 17.1561 81.9398 11.7516C83.3266 8.14864 81.9398 6.01352 80.4209 5.61319C78.3737 5.21286 75.402 7.21453 73.2228 12.619C71.5058 16.3555 70.0529 21.5598 69.0624 27.4314C68.0718 32.3021 64.2416 41.9101 60.5434 41.4431C59.1566 41.2429 60.5434 37.7066 62.2604 34.237C63.7133 31.2345 64.8359 27.6315 61.7982 27.6315C57.1094 27.6315 53.6755 37.4397 53.0811 44.7124C52.817 48.2487 52.6849 52.3855 55.3924 52.3855C58.7604 52.3855 63.1189 48.8492 67.1473 42.6441C67.4114 46.1136 71.7699 50.6507 80.1568 38.3738C80.2889 40.242 80.6851 43.0444 82.0719 43.1111C82.0719 43.1111 83.3927 43.4447 84.7134 40.4422C86.0342 37.4397 87.487 33.5698 87.8172 32.8359C88.5436 31.1011 89.8644 30.8342 89.9965 33.7033C90.1286 36.7058 90.921 38.9076 93.2984 38.9076C98.0531 38.9076 102.148 34.5039 103.336 32.8359C103.997 35.438 109.808 36.3722 116.148 28.5657C116.412 30.634 118.195 33.6365 126.185 27.2979C131.27 23.428 131.733 20.559 130.28 20.4923ZM90.1285 25.4964C89.9304 25.4964 89.6003 25.363 89.7323 25.0294C90.3469 23.3924 91.3708 21.9442 92.704 20.8259C93.5962 19.9337 94.7589 19.3698 96.006 19.2245C96.19 19.205 96.376 19.2283 96.5496 19.2929C96.7233 19.3574 96.88 19.4614 97.0076 19.5968C97.1352 19.7321 97.2303 19.8953 97.2857 20.0737C97.341 20.2521 97.355 20.441 97.3267 20.6257C97.2172 21.5182 96.7669 22.3322 96.072 22.8943C94.4755 24.4714 92.3592 25.398 90.1285 25.4964ZM117.27 17.0894C114.563 21.3596 115.553 21.8267 113.506 24.8959C111.921 27.3647 109.676 28.0319 108.817 26.6974C107.959 25.363 108.817 22.6274 110.666 20.3588C112.648 18.2237 118.525 15.1545 117.27 17.0894ZM48.1282 45.2462C48.8547 30.9009 56.5811 19.0244 56.8453 13.9535C56.9774 11.9518 55.9208 10.3505 53.4773 10.4172C49.449 10.6174 42.1848 16.4222 38.6187 23.7617C36.6376 17.5565 31.7508 21.2262 29.5055 23.9618C29.9017 12.3521 26.4017 11.3513 24.3545 11.418C17.9488 11.6849 11.2789 20.4255 7.64682 26.7642C4.27887 32.6357 -4.24006 49.9835 2.56188 51.0511C4.21283 51.3179 5.92983 49.383 7.11851 44.9126C11.5431 28.0319 16.8261 24.162 19.0054 24.2954C24.6847 24.7625 17.3544 46.1136 14.845 53.6532C13.4582 57.6566 12.2695 64.1953 16.7601 63.9952C21.845 63.795 23.9583 50.8509 25.1469 43.8451C26.5338 36.172 28.4489 33.7033 30.43 33.8367C32.7413 34.1036 31.7508 38.7074 30.2319 43.1111C28.8451 47.6482 24.2224 58.6574 29.7036 59.1245C35.1848 59.3246 34.9866 49.2496 36.5055 42.8442C38.8169 33.2362 41.3923 26.7641 44.166 27.2979C47.5999 28.0319 39.6093 40.5757 39.081 50.584C38.6848 58.3238 42.1188 63.9285 47.1377 61.7266C52.4207 59.3246 47.732 52.986 48.1282 45.2462Z" fill="white"/>
</g>
<defs>
<clipPath id="clip0_171_1520">
<rect width="131" height="64" fill="white"/>
</clipPath>
</defs>
</svg>
