<svg width="100" height="100" viewBox="0 0 100 100" fill="none" xmlns="http://www.w3.org/2000/svg">
<rect width="100" height="100" rx="22" fill="#513082"/>
<g clip-path="url(#clip0_6341_28)">
<path d="M46.4402 44.3217C47.0331 44.3717 49.2562 44.1715 49.7502 46.4234C51.8745 44.3717 51.4299 41.6694 49.9478 40.5685C47.4283 38.767 44.7111 40.4184 44.4641 42.2699C44.3159 43.4709 45.0076 44.1715 46.4402 44.3217ZM98.4612 41.3692C97.0779 41.3192 95.003 43.6711 93.2739 43.6711C92.1377 43.6711 92.0883 42.8204 92.7305 41.3692C95.2006 36.0147 92.1871 36.1649 91.5448 36.6653C91.5448 36.6653 93.7186 32.8121 89.9146 32.8121C85.2213 32.8121 81.0715 36.8154 78.8978 42.7203C78.1073 44.722 76.3782 49.0256 74.5009 49.576C72.7224 50.0765 72.7718 47.7245 71.6356 47.3242C79.0954 42.2199 79.1942 38.1165 78.0085 36.7153C76.9217 35.4643 73.4141 35.114 69.0172 39.6678C70.1041 35.6144 73.1177 33.1123 73.8587 29.0089C74.2539 26.6069 72.4754 24.1048 69.1655 28.1081C66.8929 30.8104 65.7567 35.7645 63.583 42.1198C62.2985 45.973 59.6801 52.8788 57.4076 52.8788C56.4196 52.8788 56.1232 51.978 56.4196 49.4759C57.0124 44.5719 60.9152 38.8671 62.2985 34.8137C63.3359 32.1115 62.2985 30.5101 61.1622 30.2099C59.6307 29.9096 57.4076 31.4109 55.7773 35.4643C54.4929 38.2666 53.406 42.1699 52.665 46.5735C51.9239 50.2266 49.0586 57.4326 46.292 57.0823C45.2546 56.9322 46.292 54.28 47.5765 51.6778C48.6634 49.4259 49.5032 46.7237 47.2307 46.7237C43.7231 46.7237 41.1542 54.0798 40.7095 59.5343C40.5119 62.1865 40.4131 65.2891 42.4386 65.2891C44.9582 65.2891 48.2187 62.6369 51.2323 57.983C51.4299 60.5852 54.6905 63.988 60.9646 54.7804C61.0634 56.1815 61.3598 58.2833 62.3973 58.3333C62.3973 58.3333 63.3853 58.5835 64.3734 56.3317C65.3615 54.0798 66.4483 51.1774 66.6953 50.6269C67.2388 49.3258 68.2268 49.1257 68.3256 51.2775C68.4244 53.5293 69.0172 55.1807 70.7957 55.1807C74.3527 55.1807 77.4157 51.878 78.3049 50.6269C78.799 52.5785 83.1464 53.2791 87.8891 47.4242C88.0867 48.9755 89.4205 51.2274 95.3983 46.4734C99.2023 43.571 99.5481 41.4192 98.4612 41.3692ZM68.4244 45.1223C68.2762 45.1223 68.0292 45.0222 68.128 44.772C68.5878 43.5443 69.3537 42.4581 70.3511 41.6194C71.0186 40.9503 71.8884 40.5274 72.8213 40.4184C72.9589 40.4037 73.0981 40.4213 73.228 40.4697C73.3579 40.5181 73.4751 40.596 73.5706 40.6976C73.666 40.7991 73.7372 40.9215 73.7786 41.0553C73.82 41.1891 73.8305 41.3307 73.8093 41.4693C73.7274 42.1387 73.3905 42.7492 72.8707 43.1707C71.6764 44.3536 70.0932 45.0485 68.4244 45.1223ZM88.7289 38.8171C86.7034 42.0197 87.4444 42.37 85.913 44.6719C84.7273 46.5235 83.0476 47.0239 82.4054 46.0231C81.7631 45.0222 82.4054 42.9705 83.7886 41.2691C85.2707 39.6678 89.6676 37.3659 88.7289 38.8171ZM37.0043 59.9347C37.5478 49.1757 43.3279 40.2683 43.5255 36.4651C43.6243 34.9639 42.8338 33.7629 41.006 33.8129C37.9924 33.963 32.5581 38.3167 29.8904 43.8212C28.4083 39.1674 24.7525 41.9197 23.0728 43.9714C23.3692 35.2641 20.7509 34.5135 19.2194 34.5635C14.4273 34.7637 9.43767 41.3192 6.72052 46.0731C4.20099 50.4768 -2.17195 63.4876 2.91652 64.2883C4.15158 64.4885 5.43605 63.0373 6.3253 59.6845C9.63528 47.0239 13.5875 44.1215 15.2178 44.2216C19.4664 44.5719 13.9827 60.5852 12.1054 66.2399C11.068 69.2424 10.1787 74.1465 13.5381 73.9964C17.3421 73.8463 18.923 64.1382 19.8122 58.8838C20.8497 53.129 22.2824 51.2775 23.7644 51.3775C25.4935 51.5777 24.7525 55.0306 23.6162 58.3333C22.5788 61.7362 19.1206 69.9931 23.221 70.3433C27.3214 70.4935 27.1732 62.9372 28.3095 58.1332C30.0386 50.9272 31.9653 46.0731 34.0402 46.4734C36.6091 47.0239 30.6314 56.4317 30.2362 63.938C29.9398 69.7428 32.5087 73.9463 36.2633 72.295C40.2155 70.4935 36.7079 65.7395 37.0043 59.9347Z" fill="white"/>
</g>
<defs>
<clipPath id="clip0_6341_28">
<rect width="98" height="48" fill="white" transform="translate(1 26)"/>
</clipPath>
</defs>
</svg>
